<?xml version="1.0" standalone="no"?>
<!DOCTYPE svg PUBLIC "-//W3C//DTD SVG 1.1//EN" "http://www.w3.org/Graphics/SVG/1.1/DTD/svg11.dtd" >
<svg xmlns="http://www.w3.org/2000/svg" xmlns:xlink="http://www.w3.org/1999/xlink" version="1.1">
<metadata>
Created by FontForge 20201107 at Tue Aug 20 14:13:54 2024
 By 
Copyright 2003 Monotype Imaging, Inc. All rights reserved.
</metadata>
<defs>
<font id="ZemestroStd-Bold" horiz-adv-x="997" >
  <font-face 
    font-family="Zemestro Std"
    font-weight="700"
    font-stretch="normal"
    units-per-em="2048"
    panose-1="2 0 8 6 4 0 0 2 0 4"
    ascent="1638"
    descent="-410"
    x-height="1036"
    cap-height="1438"
    bbox="-201 -563 2896 2019"
    underline-thickness="40"
    underline-position="-271"
    unicode-range="U+0020-FB02"
  />
<missing-glyph horiz-adv-x="1024" 
d="M25 0v1362h972v-1362h-972zM180 1266l332 -498l330 498h-662zM123 1178v-992q0 -1 82.5 123t164.5 249l83 124zM901 1178l-332 -496l332 -498v994zM842 98l-330 496l-332 -496h662z" />
    <glyph glyph-name="f_i" unicode="fi" horiz-adv-x="1306" 
d="M1206 1282q0 -92 -42.5 -134t-139.5 -42t-139.5 42t-42.5 134q0 93 42 134.5t140 41.5t140 -41.5t42 -134.5zM1190 0h-332v1036h332v-1036zM776 1178q-102 24 -164 24q-127 0 -127 -129v-37h226v-268h-226v-768h-331v768h-127v268h127v101q0 158 91.5 235.5t301.5 77.5
q147 0 229 -8v-264z" />
    <glyph glyph-name="f_l" unicode="fl" horiz-adv-x="1280" 
d="M1174 0h-332v1438h332v-1438zM776 1178q-102 24 -164 24q-127 0 -127 -129v-37h226v-268h-226v-768h-331v768h-127v268h127v101q0 158 91.5 235.5t301.5 77.5q147 0 229 -8v-264z" />
    <glyph glyph-name=".notdef" horiz-adv-x="1024" 
d="M25 0v1362h972v-1362h-972zM180 1266l332 -498l330 498h-662zM123 1178v-992q0 -1 82.5 123t164.5 249l83 124zM901 1178l-332 -496l332 -498v994zM842 98l-330 496l-332 -496h662z" />
    <glyph glyph-name=".null" horiz-adv-x="0" 
 />
    <glyph glyph-name="nonmarkingreturn" horiz-adv-x="682" 
 />
    <glyph glyph-name="space" unicode=" " horiz-adv-x="512" 
 />
    <glyph glyph-name="exclam" unicode="!" horiz-adv-x="581" 
d="M467 1438l-21 -1006h-311l-20 1006h352zM481 172q0 -104 -43.5 -150.5t-146.5 -46.5t-147 46.5t-44 150.5t44 149.5t147 45.5t146.5 -45.5t43.5 -149.5z" />
    <glyph glyph-name="quotedbl" unicode="&#x22;" horiz-adv-x="1030" 
d="M862 1380l-22 -379q-2 -37 -11 -50t-36 -13h-136q-30 0 -41 11t-14 52l-24 379v13q0 28 12 36.5t45 8.5h174q26 0 39.5 -14.5t13.5 -37.5v-6zM453 1380l-23 -379q-2 -37 -11 -50t-36 -13h-135q-30 0 -41 11t-14 52l-25 379v13q0 28 12 36.5t45 8.5h174q27 0 40.5 -14.5
t13.5 -37.5v-6z" />
    <glyph glyph-name="numbersign" unicode="#" horiz-adv-x="1251" 
d="M1235 1040l-49 -233h-166l-45 -189h160l-58 -233h-157l-80 -340h-258l80 340h-220l-82 -340h-266l84 340h-166l58 233h166l45 189h-168l59 233h162l82 338h258l-76 -338h217l76 338h266l-82 -338h160zM760 807h-219l-45 -189h219z" />
    <glyph glyph-name="dollar" unicode="$" horiz-adv-x="1208" 
d="M1135 436q0 -193 -101 -302.5t-311 -135.5v-199h-234v195q-201 16 -405 94l25 291q221 -104 380 -127v366q-50 14 -87 26t-82.5 31t-78.5 40.5t-66.5 52.5t-54 67.5t-33.5 85.5t-13 107q0 169 104.5 279.5t310.5 134.5v196h234v-198q155 -18 330 -84l-25 -291
q-186 101 -305 123v-340q48 -13 86 -25.5t82.5 -32.5t77.5 -41.5t66 -53t53.5 -68.5t33.5 -85.5t13 -105.5zM489 918v268q-62 -18 -85 -55t-23 -95q0 -74 108 -118zM827 414q0 85 -104 133v-287q57 19 80.5 57t23.5 97z" />
    <glyph glyph-name="percent" unicode="%" horiz-adv-x="2066" 
d="M2015 414q0 -79 -9.5 -140.5t-35 -119.5t-68 -96t-112.5 -60.5t-164 -22.5t-163.5 22.5t-112 60.5t-68 96t-34.5 119.5t-9 140.5t9 140.5t34.5 119.5t68 95.5t112 60t163.5 22.5t164 -22.5t112.5 -60t68 -95.5t35 -119.5t9.5 -140.5zM1499 1462l-651 -1487h-279l648 1487
h282zM827 1024q0 -79 -9.5 -140.5t-35 -119.5t-68 -95.5t-112.5 -60t-164 -22.5t-163.5 22.5t-112 60t-68 95.5t-34.5 119.5t-9 140.5t9 140.5t34.5 119.5t68 95.5t112 60t163.5 22.5t164 -22.5t112.5 -60t68 -95.5t35 -119.5t9.5 -140.5zM1745 414q0 68 -4 111.5
t-11.5 70.5t-23.5 39.5t-32.5 16t-47.5 3.5q-30 0 -47 -3.5t-32.5 -16t-22.5 -39.5t-11 -70.5t-4 -111.5q0 -112 11.5 -163.5t33.5 -65t72 -13.5q38 0 57.5 6t35.5 30.5t21 72.5t5 133zM557 1024q0 85 -5 133t-21 72.5t-35.5 30.5t-57.5 6q-30 0 -47 -4t-32.5 -16.5
t-22 -39.5t-10.5 -70t-4 -112t4 -112t10.5 -70t22 -39.5t32.5 -16.5t47 -4q38 0 57.5 6t35.5 30.5t21 72.5t5 133z" />
    <glyph glyph-name="ampersand" unicode="&#x26;" horiz-adv-x="1431" 
d="M1376 162l-198 -201q-8 7 -71.5 59.5t-94.5 77.5q-93 -69 -180.5 -96t-229.5 -27q-114 0 -204 23t-149 61.5t-97.5 92.5t-55 112.5t-16.5 124.5q0 144 53.5 235t147.5 150q-66 83 -92.5 155t-26.5 158q0 166 113 270.5t309 104.5q201 0 312.5 -87t111.5 -267
q0 -82 -22.5 -147t-65 -110.5t-86 -75.5t-103.5 -58q54 -49 254 -225q42 104 68 251h288q-37 -272 -135 -438q19 -16 77.5 -65t92.5 -78zM731 1108q0 57 -31.5 86t-107.5 29q-148 0 -148 -133q0 -45 21 -85.5t86 -109.5q84 37 132 85t48 128zM803 276q-233 199 -340 304
q-74 -64 -74 -170q0 -91 49 -137t180 -46q115 0 185 49z" />
    <glyph glyph-name="quotesingle" unicode="'" horiz-adv-x="583" 
d="M434 1380l-22 -379q-2 -37 -11 -50t-36 -13h-136q-30 0 -41 11t-14 52l-24 379v13q0 28 12 36.5t45 8.5h174q26 0 39.5 -14.5t13.5 -37.5v-6z" />
    <glyph glyph-name="parenleft" unicode="(" horiz-adv-x="651" 
d="M674 -354l-277 -72q-141 199 -228 466.5t-87 567.5q0 304 86.5 569t228.5 465l277 -71q-153 -223 -217 -446t-64 -517t64 -516.5t217 -445.5z" />
    <glyph glyph-name="parenright" unicode=")" horiz-adv-x="651" 
d="M569 608q0 -306 -86.5 -570t-228.5 -464l-277 72q153 223 217 445.5t64 516.5t-64 517t-217 446l277 71q142 -200 228.5 -465t86.5 -569z" />
    <glyph glyph-name="asterisk" unicode="*" horiz-adv-x="1007" 
d="M971 1051q9 -25 -2.5 -42.5t-36.5 -23.5l-254 -65l172 -205q23 -30 20 -44.5t-32 -35.5l-113 -82q-22 -14 -42 -9.5t-32 25.5l-141 222l-141 -226q-19 -31 -37 -32.5t-45 20.5l-111 80q-21 14 -21.5 36t15.5 40l166 202l-258 66q-35 9 -42 24.5t5 47.5l41 131
q7 25 28 32.5t44 -2.5l241 -96l-16 266q-3 37 9 47.5t48 10.5h137q27 0 40.5 -16t11.5 -42l-17 -262l248 101q36 12 48.5 4.5t23.5 -41.5z" />
    <glyph glyph-name="plus" unicode="+" 
d="M889 545h-273v-273h-235v273h-272v235h272v273h235v-273h273v-235z" />
    <glyph glyph-name="comma" unicode="," horiz-adv-x="514" 
d="M434 367l-284 -695l-242 41l196 654h330z" />
    <glyph glyph-name="hyphen" unicode="-" horiz-adv-x="800" 
d="M729 393h-657v293h657v-293z" />
    <glyph glyph-name="period" unicode="." horiz-adv-x="514" 
d="M444 172q0 -104 -43.5 -150.5t-146.5 -46.5t-147 46.5t-44 150.5t44 149.5t147 45.5t146.5 -45.5t43.5 -149.5z" />
    <glyph glyph-name="slash" unicode="/" horiz-adv-x="1071" 
d="M1063 1438l-731 -1487h-320l727 1487h324z" />
    <glyph glyph-name="zero" unicode="0" horiz-adv-x="1304" 
d="M1219 719q0 -115 -10 -206.5t-33.5 -178.5t-65.5 -150.5t-104 -111.5t-151 -72.5t-204 -24.5q-99 0 -178.5 19t-138 52.5t-102 85t-71.5 112t-45 138.5t-23.5 158.5t-6.5 178.5q0 139 13.5 245t51 203t99.5 159.5t163 99t238 36.5t238 -36.5t164 -99t100.5 -159.5
t51.5 -203t14 -245zM879 719q0 204 -20 304t-66.5 137.5t-141.5 37.5q-57 0 -93.5 -12t-64 -40.5t-41 -85.5t-20 -137t-6.5 -204t6.5 -204t20 -137t41 -85.5t64 -40.5t93.5 -12q95 0 141.5 37.5t66.5 137.5t20 304z" />
    <glyph glyph-name="one" unicode="1" horiz-adv-x="894" 
d="M858 0h-792v268h231v830l-225 -101l-25 291l334 150h248v-1170h229v-268z" />
    <glyph glyph-name="two" unicode="2" horiz-adv-x="1091" 
d="M1026 1053q0 -89 -41 -184.5t-123.5 -199t-169 -193t-215.5 -208.5h547v-268h-958v244q156 150 249 242.5t172.5 180.5t117 148t57.5 116t20 113q0 77 -36 114.5t-128 37.5q-80 0 -161.5 -20.5t-133 -43.5t-133.5 -65l-24 279q133 67 232 91.5t253 24.5
q131 0 224.5 -29.5t147.5 -85t78.5 -128t24.5 -166.5z" />
    <glyph glyph-name="three" unicode="3" horiz-adv-x="1105" 
d="M1053 442q0 -120 -41 -211t-116 -146t-174.5 -82.5t-221.5 -27.5q-116 0 -243.5 25.5t-236.5 69.5l25 284q241 -118 447 -118q124 0 172.5 43.5t48.5 158.5q0 94 -51 127t-162 33h-273v264h197q104 0 154 17t67 55t17 117q0 78 -40.5 114.5t-140.5 36.5q-95 0 -190.5 -31
t-212.5 -92l-25 285q75 32 126 49.5t134 33t172 15.5q236 0 372 -95t136 -292q0 -103 -21.5 -174.5t-72.5 -120.5q83 -48 118.5 -131t35.5 -207z" />
    <glyph glyph-name="four" unicode="4" horiz-adv-x="1298" 
d="M1235 283h-186v-283h-332v283h-647l-21 260l707 895h293v-871h186v-284zM717 567v381l-291 -381h291z" />
    <glyph glyph-name="five" unicode="5" horiz-adv-x="1071" 
d="M1014 457q0 -482 -553 -482q-227 0 -438 86l24 291q117 -56 209 -83t197 -27q124 0 172.5 45.5t48.5 175.5q0 120 -40.5 166.5t-162.5 46.5q-155 0 -321 -35h-80l61 797h807v-269h-541l-18 -237q64 6 123 6q275 0 393.5 -107.5t118.5 -373.5z" />
    <glyph glyph-name="six" unicode="6" horiz-adv-x="1226" 
d="M1169 457q0 -229 -129.5 -355.5t-410.5 -126.5q-128 0 -223.5 34.5t-156 94.5t-97.5 152.5t-51.5 196.5t-14.5 239q0 129 14.5 235.5t53 208.5t100.5 172t162.5 112t232.5 42q170 0 420 -65l-25 -275q-121 38 -208.5 56t-182.5 18q-65 0 -110 -20.5t-70.5 -61.5t-38 -90
t-18.5 -119q161 33 278 33q238 0 356.5 -118.5t118.5 -362.5zM850 475q0 111 -36 155t-132 44q-122 0 -270 -37q2 -92 8 -152t20 -111.5t39 -79.5t63 -43t93 -15q113 0 164 52.5t51 186.5z" />
    <glyph glyph-name="seven" unicode="7" horiz-adv-x="1060" 
d="M1026 1243l-584 -1243h-360l569 1169h-616v269h991v-195z" />
    <glyph glyph-name="eight" unicode="8" horiz-adv-x="1239" 
d="M1180 442q0 -239 -136.5 -353t-425.5 -114t-424 114t-135 353q0 234 152 332q-113 99 -113 301q0 196 135 291.5t385 95.5t386.5 -95.5t136.5 -291.5q0 -201 -115 -301q154 -95 154 -332zM809 1051q0 81 -41 117t-150 36q-108 0 -148 -36t-40 -117q0 -103 40 -148
t148 -45q110 0 150.5 45t40.5 148zM840 438q0 102 -45.5 135t-176.5 33q-132 0 -175.5 -32t-43.5 -136q0 -121 45.5 -163t173.5 -42q129 0 175.5 42.5t46.5 162.5z" />
    <glyph glyph-name="nine" unicode="9" horiz-adv-x="1228" 
d="M1143 745q0 -103 -5.5 -183.5t-21 -163.5t-41.5 -144t-69 -116t-102 -89t-142 -54t-187 -20q-136 0 -235 20t-229 64l24 287q235 -104 436 -104q130 0 179.5 65.5t60.5 227.5q-132 -39 -268 -39q-246 0 -366 128.5t-120 350.5q0 235 141 361t404 126q161 0 266.5 -42.5
t166 -135.5t84.5 -220.5t24 -318.5zM813 827q-2 121 -10.5 188t-32.5 112t-63.5 60t-108.5 15q-114 0 -164.5 -53t-50.5 -170q0 -111 35 -155t145 -44q114 0 250 47z" />
    <glyph glyph-name="colon" unicode=":" horiz-adv-x="514" 
d="M444 842q0 -104 -43.5 -150.5t-146.5 -46.5t-147 46.5t-44 150.5t44 149t147 45t146.5 -45t43.5 -149zM444 172q0 -104 -43.5 -150.5t-146.5 -46.5t-147 46.5t-44 150.5t44 149.5t147 45.5t146.5 -45.5t43.5 -149.5z" />
    <glyph glyph-name="semicolon" unicode=";" horiz-adv-x="514" 
d="M449 842q0 -104 -44 -150.5t-147 -46.5t-146.5 46.5t-43.5 150.5t43.5 149t146.5 45t147 -45t44 -149zM434 367l-284 -695l-242 41l196 654h330z" />
    <glyph glyph-name="less" unicode="&#x3c;" 
d="M870 70l-718 479v229l718 479v-309l-424 -284l424 -285v-309z" />
    <glyph glyph-name="equal" unicode="=" 
d="M889 729h-780v236h780v-236zM889 354h-780v236h780v-236z" />
    <glyph glyph-name="greater" unicode="&#x3e;" 
d="M846 549l-719 -479v309l424 285l-424 284v309l719 -479v-229z" />
    <glyph glyph-name="question" unicode="?" horiz-adv-x="1017" 
d="M946 1096q0 -76 -20 -138t-52 -101.5t-70.5 -71t-77 -54t-70.5 -42.5t-52 -43.5t-20 -51.5v-162h-318v180q0 58 19 103.5t49 74t66.5 52t73 45.5t66.5 46t49 60.5t19 83.5q0 125 -149 125q-73 0 -156 -20t-211 -70l-16 277q195 73 395 73q475 0 475 -366zM614 172
q0 -104 -43.5 -150.5t-146.5 -46.5t-147 46.5t-44 150.5t44 149.5t147 45.5t146.5 -45.5t43.5 -149.5z" />
    <glyph glyph-name="at" unicode="@" horiz-adv-x="2121" 
d="M2030 498q0 -533 -443 -533q-197 0 -303 135q-86 -63 -166 -94t-174 -31q-155 0 -251.5 88t-96.5 230q0 89 24 152.5t69 105t119.5 66t165 34.5t216.5 11v65q0 20 -2.5 32t-13.5 25.5t-36.5 20t-66.5 6.5q-83 0 -170.5 -20.5t-220.5 -69.5v262q108 32 226 51t196 19
q399 0 399 -342v-314q0 -102 27 -148t84 -46q42 0 64.5 15t37.5 72.5t15 168.5q0 87 -2.5 153t-11 136t-22.5 120.5t-37.5 102t-56.5 86.5t-79 66.5t-105.5 49.5t-135.5 28.5t-169 10.5q-144 0 -248.5 -14.5t-185.5 -50.5t-132 -90t-84 -138.5t-46 -190.5t-13 -253
q0 -310 139 -472.5t437 -162.5h594v-250h-625q-181 0 -324.5 43t-242 122t-163.5 193t-94.5 252t-29.5 304q0 247 52.5 422t172 297t315 180.5t478.5 58.5q210 0 365.5 -39t261.5 -114t171 -194t93.5 -268.5t28.5 -348.5zM1198 297q-8 41 -8 88v41q-122 -1 -182 -12.5
t-80.5 -34t-20.5 -68.5q0 -49 25 -74.5t65 -25.5q52 0 96.5 20t104.5 66z" />
    <glyph glyph-name="A" unicode="A" horiz-adv-x="1300" 
d="M1311 0h-357l-96 336h-428l-102 -336h-338l495 1438h349zM782 598l-133 459l-139 -459h272z" />
    <glyph glyph-name="B" unicode="B" horiz-adv-x="1200" 
d="M1147 399q0 -54 -9 -105t-34.5 -106t-65.5 -95.5t-108.5 -66.5t-157.5 -26h-655v1438h635q91 0 159.5 -29.5t104 -70t57 -95t26.5 -92t5 -74.5q0 -214 -148 -313q86 -43 138.5 -134t52.5 -231zM786 1030q0 84 -28.5 112.5t-118.5 28.5h-186v-315h184q89 0 119 37.5
t30 136.5zM817 434q0 100 -35 132t-127 32h-202v-332h190q108 0 141 31.5t33 136.5z" />
    <glyph glyph-name="C" unicode="C" horiz-adv-x="1167" 
d="M1112 31q-50 -22 -153 -39t-228 -17q-103 0 -186.5 12.5t-146 31t-110.5 54.5t-80.5 69.5t-54.5 90t-34 101t-18 118.5t-7.5 126t-1.5 139q0 203 29.5 339.5t101 229.5t189 134.5t293.5 41.5q245 0 399 -53l-23 -289q-198 66 -366 66q-56 0 -93.5 -6t-71 -24.5t-54 -50.5
t-35.5 -84.5t-21 -126.5t-6 -177q0 -82 2.5 -142t10 -109.5t17 -82t28.5 -57.5t38.5 -38.5t52 -22t66 -11t82.5 -2.5q97 0 194.5 19t164.5 46z" />
    <glyph glyph-name="D" unicode="D" horiz-adv-x="1292" 
d="M1200 717q0 -117 -4 -193.5t-18 -159.5t-40.5 -134t-71 -99.5t-110.5 -74t-158 -41t-214 -15.5h-467v1438h485q123 0 216 -19t159 -60.5t109.5 -98.5t68.5 -141.5t35 -179.5t10 -222zM862 719q0 80 -1.5 134t-7 103t-12.5 78.5t-22 54.5t-32 37.5t-45.5 21t-59 11
t-76.5 2.5h-153v-885h143q48 0 84 4t64 17t47 27.5t32.5 44t21 57.5t11.5 78.5t5 95.5t1 119z" />
    <glyph glyph-name="E" unicode="E" horiz-adv-x="1112" 
d="M1032 0h-915v1438h915v-277h-579v-287h495v-276h-495v-322h579v-276z" />
    <glyph glyph-name="F" unicode="F" horiz-adv-x="1021" 
d="M985 1161h-532v-287h471v-276h-471v-598h-336v1438h868v-277z" />
    <glyph glyph-name="G" unicode="G" horiz-adv-x="1255" 
d="M1155 4q-241 -29 -479 -29q-112 0 -201 22.5t-149.5 59t-104.5 94.5t-68.5 116.5t-38.5 139.5t-18 148.5t-4 157.5q0 78 2.5 137.5t10 127t20.5 118t36 103.5t54.5 90.5t77 72t102.5 55t132.5 33t166.5 12.5q251 0 449 -49l-23 -289q-189 62 -387 62q-64 0 -106 -6.5
t-78 -26t-56 -51.5t-34.5 -86.5t-19.5 -126t-5 -176.5q0 -117 7 -193t23 -132t47 -85t74 -42t109 -13q76 0 156 6v281h-193v270h498v-801z" />
    <glyph glyph-name="H" unicode="H" horiz-adv-x="1331" 
d="M1214 0h-335v598h-426v-598h-336v1438h336v-564h426v564h335v-1438z" />
    <glyph glyph-name="I" unicode="I" horiz-adv-x="581" 
d="M459 0h-336v1438h336v-1438z" />
    <glyph glyph-name="J" unicode="J" horiz-adv-x="731" 
d="M621 430q0 -85 -9 -150t-33 -124.5t-63 -97.5t-102 -60.5t-148 -22.5q-114 0 -266 35v307q108 -45 197 -45q58 0 73 33t15 121v1012h336v-1008z" />
    <glyph glyph-name="K" unicode="K" horiz-adv-x="1372" 
d="M1372 0h-434l-485 598v-598h-336v1438h336v-617l438 617h407l-536 -697z" />
    <glyph glyph-name="L" unicode="L" horiz-adv-x="989" 
d="M950 0h-833v1438h336v-1153h497v-285z" />
    <glyph glyph-name="M" unicode="M" horiz-adv-x="1540" 
d="M1423 0h-336v688l-204 -448h-226l-204 448v-688h-336v1438h332l321 -748l322 748h331v-1438z" />
    <glyph glyph-name="N" unicode="N" horiz-adv-x="1376" 
d="M1260 0h-336l-471 795v-795h-336v1438h336l471 -817v817h336v-1438z" />
    <glyph glyph-name="O" unicode="O" horiz-adv-x="1376" 
d="M1284 719q0 -90 -4.5 -160t-20 -150.5t-41 -140.5t-70.5 -117.5t-106.5 -94t-151.5 -59t-202 -22.5t-202 22.5t-151.5 59t-106.5 94t-70.5 117.5t-41 140.5t-20 150.5t-4.5 160t4.5 160t20 150.5t41 140t70.5 117t106.5 94.5t151.5 59t202 22t202 -22t151.5 -59
t106.5 -94.5t70.5 -117t41 -140t20 -150.5t4.5 -160zM942 719q0 70 -1 115t-5 96t-11 82t-20 64t-31.5 51t-44.5 33.5t-61 21.5t-80 6t-80 -6t-61 -21.5t-44.5 -33.5t-31.5 -51t-20 -64t-11 -82t-5 -96t-1 -115t1 -115t5 -96t11 -82t20 -64t31.5 -51t44.5 -33.5t61 -21.5
t80 -6t80 6t61 21.5t44.5 33.5t31.5 51t20 64t11 82t5 96t1 115z" />
    <glyph glyph-name="P" unicode="P" horiz-adv-x="1193" 
d="M1135 948q0 -80 -12.5 -148t-41 -127.5t-72 -101.5t-109 -66t-148.5 -24h-299v-481h-336v1438h624q76 0 136.5 -14t101.5 -37t70.5 -60.5t45.5 -75.5t25.5 -92.5t12 -100.5t2.5 -110zM807 969q0 48 -2.5 78t-11.5 52.5t-20 34t-36 18t-50 8t-71 1.5h-163v-403h204
q41 0 68 7.5t44 20.5t25 41t10.5 58.5t2.5 83.5z" />
    <glyph glyph-name="Q" unicode="Q" horiz-adv-x="1376" 
d="M1284 719q0 -88 -4.5 -157.5t-19 -148.5t-39 -138.5t-67.5 -117t-102 -95t-144.5 -61t-192.5 -26.5h549v-276h-596v276q-109 2 -195.5 25t-146 60t-103 95t-68.5 117.5t-39.5 139t-19 149t-4.5 158.5q0 90 4.5 160t20 150.5t41 140t70.5 117t106.5 94.5t151.5 59t202 22
t202 -22t151.5 -59t106.5 -94.5t70.5 -117t41 -140t20 -150.5t4.5 -160zM942 719q0 70 -1 115t-5 96t-11 82t-20 64t-31.5 51t-44.5 33.5t-61 21.5t-80 6t-80 -6t-61 -21.5t-44.5 -33.5t-31.5 -51t-20 -64t-11 -82t-5 -96t-1 -115t1 -115t5 -96t11 -82t20 -64t31.5 -51
t44.5 -33.5t61 -21.5t80 -6t80 6t61 21.5t44.5 33.5t31.5 51t20 64t11 82t5 96t1 115z" />
    <glyph glyph-name="R" unicode="R" horiz-adv-x="1206" 
d="M1186 0h-373l-293 532h-67v-532h-336v1438h639q85 0 148 -22t102.5 -59.5t63.5 -95t33 -120.5t9 -144q0 -386 -225 -452zM784 997q0 71 -15 107t-41.5 46.5t-80.5 10.5h-194v-350h186q46 0 71 5.5t43.5 25.5t24.5 56t6 99z" />
    <glyph glyph-name="S" unicode="S" horiz-adv-x="1081" 
d="M1049 436q0 -115 -29.5 -199t-78 -133.5t-124 -79t-153 -39.5t-179.5 -10q-194 0 -417 41l20 312q83 -31 193 -49.5t204 -18.5q71 0 115 10.5t64 33.5t26 47t6 63q0 43 -22.5 74.5t-60.5 51t-87.5 35.5t-104 32t-108.5 35.5t-103.5 52t-87.5 76t-60.5 112.5t-22.5 157
q0 201 131 311.5t391 110.5q192 0 420 -37l-20 -323q-91 34 -199.5 55t-200.5 21t-128 -28t-36 -85q0 -41 22.5 -71t60 -49t86.5 -34.5t103 -32t108 -36.5t103 -53.5t86.5 -78.5t60 -115t22.5 -159z" />
    <glyph glyph-name="T" unicode="T" horiz-adv-x="1075" 
d="M1036 1161h-331v-1161h-336v1161h-330v277h997v-277z" />
    <glyph glyph-name="U" unicode="U" horiz-adv-x="1339" 
d="M1231 573q0 -110 -17 -198t-57 -164t-103.5 -127t-160.5 -80t-223 -29t-223 29t-160.5 80t-103.5 127t-57 164t-17 198v865h335v-863q0 -172 47.5 -239.5t178.5 -67.5t178 67.5t47 239.5v863h336v-865z" />
    <glyph glyph-name="V" unicode="V" horiz-adv-x="1351" 
d="M1368 1438l-520 -1438h-383l-481 1438h378l316 -1069l336 1069h354z" />
    <glyph glyph-name="W" unicode="W" horiz-adv-x="1753" 
d="M1743 1438l-305 -1438h-328l-233 893l-224 -893h-331l-312 1438h348l150 -910l197 910h342l202 -901l146 901h348z" />
    <glyph glyph-name="X" unicode="X" horiz-adv-x="1232" 
d="M1247 0h-387l-250 444l-248 -444h-376l422 754l-383 684h385l200 -363l203 363h375l-373 -666z" />
    <glyph glyph-name="Y" unicode="Y" horiz-adv-x="1183" 
d="M1206 1438l-446 -860v-578h-336v578l-447 860h375l246 -500l258 500h350z" />
    <glyph glyph-name="Z" unicode="Z" horiz-adv-x="1175" 
d="M1098 1196l-615 -920h602v-276h-1013v248l600 913h-586v277h1012v-242z" />
    <glyph glyph-name="bracketleft" unicode="[" horiz-adv-x="655" 
d="M696 -471h-573v2159h573v-226h-276v-1708h276v-225z" />
    <glyph glyph-name="backslash" unicode="\" horiz-adv-x="1034" 
d="M1042 -49h-319l-731 1487h323z" />
    <glyph glyph-name="bracketright" unicode="]" horiz-adv-x="655" 
d="M532 -471h-573v225h277v1708h-277v226h573v-2159z" />
    <glyph glyph-name="asciicircum" unicode="^" 
d="M1006 850h-265l-241 352l-244 -352h-264l428 612h160z" />
    <glyph glyph-name="underscore" unicode="_" horiz-adv-x="1024" 
d="M1024 -442h-1024v233h1024v-233z" />
    <glyph glyph-name="grave" unicode="`" horiz-adv-x="567" 
d="M567 1358l-26 -213l-541 188v277z" />
    <glyph glyph-name="a" unicode="a" horiz-adv-x="1071" 
d="M973 0h-293l-29 90q-165 -110 -321 -110q-119 0 -196 75t-77 219q0 74 10.5 126.5t37 95t68.5 68.5t109 43t154.5 23.5t208.5 4.5v29q0 27 -1 42.5t-9 38.5t-22.5 35t-43 21.5t-69.5 9.5q-91 0 -188 -20t-162 -46v252q183 56 430 56q89 0 157 -15.5t123 -50.5t84 -98
t29 -152v-737zM645 283v149q-52 4 -91.5 2t-67.5 -2.5t-48 -8t-32 -15t-18.5 -23t-8.5 -32t-2 -42.5q0 -102 82 -102q87 0 186 74z" />
    <glyph glyph-name="b" unicode="b" horiz-adv-x="1126" 
d="M1051 508q0 -123 -22.5 -215t-62.5 -152.5t-101.5 -97.5t-133.5 -52.5t-164 -15.5q-182 0 -461 25v1438h332v-418q132 33 238 33q107 0 179.5 -32.5t115.5 -102.5t61.5 -168.5t18.5 -241.5zM717 498q0 135 -17.5 201t-53 87t-109.5 21q-38 0 -99 -14v-568q38 -6 78 -6
q36 0 58.5 2.5t48 11.5t40.5 27.5t28.5 48.5t19.5 77.5t6 111.5z" />
    <glyph glyph-name="c" unicode="c" horiz-adv-x="909" 
d="M872 8q-179 -33 -346 -33q-117 0 -204.5 38t-140.5 109t-79 165.5t-26 212.5q0 130 24.5 229t78.5 173t145.5 112.5t218.5 38.5q118 0 317 -23l-14 -262q-141 37 -268 37q-101 0 -135.5 -67t-34.5 -238q0 -114 21 -175t57.5 -80.5t101.5 -19.5q93 0 262 43z" />
    <glyph glyph-name="d" unicode="d" horiz-adv-x="1153" 
d="M1047 0h-299l-11 45q-81 -70 -209 -70q-80 0 -146.5 17t-124 56.5t-97 101t-62 153t-22.5 209.5q0 256 114.5 398.5t333.5 142.5q107 0 191 -23v408h332v-1438zM715 272v506q-86 27 -146 27q-92 0 -126.5 -64t-34.5 -231q0 -92 12 -152t36.5 -90.5t53.5 -41.5t72 -11
q73 0 133 57z" />
    <glyph glyph-name="e" unicode="e" horiz-adv-x="1075" 
d="M983 414h-580q9 -115 49.5 -155t131.5 -40q68 0 140 10t115.5 20.5t133.5 33.5v-258q-242 -50 -449 -50q-224 0 -336 127t-112 398q0 103 13 183.5t46.5 151.5t87 118t137.5 73.5t195 26.5q234 0 331 -127t97 -426v-86zM670 590q0 115 -27 167t-102 52
q-74 0 -103.5 -54.5t-34.5 -164.5h267z" />
    <glyph glyph-name="f" unicode="f" horiz-adv-x="747" 
d="M776 1178q-102 24 -164 24q-127 0 -127 -129v-37h226v-268h-226v-768h-331v768h-127v268h127v101q0 158 91.5 235.5t301.5 77.5q147 0 229 -8v-264z" />
    <glyph glyph-name="g" unicode="g" horiz-adv-x="1128" 
d="M1022 -84q0 -75 -23.5 -133t-76.5 -104.5t-149 -71.5t-232 -25q-252 0 -435 49v256q209 -63 433 -63q51 0 82 7.5t46 26.5t19 40.5t4 60.5v68q-100 -27 -223 -27q-203 0 -297 124.5t-94 364.5q0 126 25.5 224t69 161.5t106.5 104t133 57.5t153 17q227 0 459 -17v-1120z
M690 264v537q-62 6 -131 6q-93 0 -121 -63t-28 -236q0 -74 6.5 -123t16.5 -78t31 -43t42 -18t57 -4q59 0 127 22z" />
    <glyph glyph-name="h" unicode="h" horiz-adv-x="1114" 
d="M1016 0h-332v639q0 66 -20 92.5t-62 26.5q-62 0 -164 -64v-694h-332v1438h332v-502q180 117 328 117q140 0 195 -72t55 -207v-774z" />
    <glyph glyph-name="i" unicode="i" horiz-adv-x="565" 
d="M465 1282q0 -92 -42.5 -134t-139.5 -42t-140 42t-43 134q0 93 42.5 134.5t140.5 41.5t140 -41.5t42 -134.5zM449 0h-332v1036h332v-1036z" />
    <glyph glyph-name="j" unicode="j" horiz-adv-x="567" 
d="M467 1282q0 -92 -42.5 -134t-139.5 -42t-140 42t-43 134q0 93 42.5 134.5t140.5 41.5t140 -41.5t42 -134.5zM451 -39q0 -44 -1.5 -75t-9.5 -74t-22.5 -73t-42.5 -62t-66.5 -51.5t-97.5 -32.5t-133 -13q-110 0 -182 10v256q77 -18 131 -18q57 0 73.5 29t16.5 112v1067h334
v-1075z" />
    <glyph glyph-name="k" unicode="k" horiz-adv-x="1218" 
d="M1219 0h-416l-365 502v-502h-332v1438h332v-783l336 381h408l-420 -446z" />
    <glyph glyph-name="l" unicode="l" horiz-adv-x="544" 
d="M438 0h-332v1438h332v-1438z" />
    <glyph glyph-name="m" unicode="m" horiz-adv-x="1630" 
d="M1532 0h-332v641q0 113 -74 113q-51 0 -141 -70v-684h-332v641q0 113 -73 113q-52 0 -142 -70v-684h-332v1036h287l43 -125q176 131 314 131q72 0 126 -40t82 -109q187 149 338 149q107 0 171.5 -85.5t64.5 -217.5v-739z" />
    <glyph glyph-name="n" unicode="n" horiz-adv-x="1114" 
d="M1016 0h-332v633q0 66 -20 92.5t-62 26.5q-62 0 -164 -64v-688h-332v1036h287l39 -110q184 121 334 121q140 0 195 -72t55 -207v-768z" />
    <glyph glyph-name="o" unicode="o" horiz-adv-x="1130" 
d="M1055 514q0 -273 -122 -406t-368 -133q-245 0 -367 133t-122 406t122 406t367 133q246 0 368 -133t122 -406zM723 514q0 55 -3.5 95.5t-13.5 78t-27 60.5t-45.5 37t-68.5 14q-49 0 -81 -19.5t-48 -60.5t-22 -88t-6 -117t6 -117t22 -88t48 -60.5t81 -19.5q40 0 68.5 14
t45.5 37t27 60.5t13.5 78t3.5 95.5z" />
    <glyph glyph-name="p" unicode="p" horiz-adv-x="1140" 
d="M1065 516q0 -256 -115 -398.5t-334 -142.5q-97 0 -178 19v-404h-332v1446h279l18 -53q81 70 209 70q101 0 180.5 -28t142 -89t96.5 -167.5t34 -252.5zM733 518q0 92 -11.5 150.5t-36.5 87t-53.5 38t-72.5 9.5q-72 0 -121 -43v-518q71 -19 133 -19q92 0 127 64.5t35 230.5
z" />
    <glyph glyph-name="q" unicode="q" horiz-adv-x="1126" 
d="M1020 -410h-332v412q-106 -27 -213 -27q-213 0 -306 125.5t-93 419.5q0 122 25 215t68.5 152.5t108.5 97.5t139.5 53t166.5 15q157 0 436 -25v-1438zM688 233v570q-38 6 -78 6q-43 0 -69 -4t-54 -19t-43 -44.5t-24.5 -82t-9.5 -129.5q0 -135 17.5 -201t53 -87t109.5 -21
q52 0 98 12z" />
    <glyph glyph-name="r" unicode="r" horiz-adv-x="788" 
d="M748 762q-30 6 -86 6q-114 0 -224 -96v-672h-332v1036h287l41 -116q140 133 293 133h21v-291z" />
    <glyph glyph-name="s" unicode="s" horiz-adv-x="960" 
d="M901 311q0 -71 -22 -129t-68.5 -106t-128.5 -74.5t-193 -26.5q-88 0 -218.5 13.5t-215.5 31.5l37 252q72 -17 181.5 -32t187.5 -15q80 0 109.5 16.5t29.5 49.5t-21.5 45t-121.5 37q-103 26 -170.5 51.5t-112 53.5t-67 67t-31 81.5t-8.5 106.5q0 164 101.5 242t319.5 78
q172 0 363 -35l-25 -238q-168 41 -290 41q-97 0 -131.5 -9.5t-34.5 -45.5q0 -27 22.5 -40.5t104.5 -33.5q70 -16 124 -32t95.5 -35t71 -36.5t50 -41.5t33 -46.5t19 -55t8.5 -62t2 -72.5z" />
    <glyph glyph-name="t" unicode="t" horiz-adv-x="823" 
d="M758 8q-149 -26 -314 -26q-160 0 -223 76t-63 237v473h-127v268h127v273h331v-273h263v-268h-263v-397q0 -79 16 -103t73 -24q75 0 180 47v-283z" />
    <glyph glyph-name="u" unicode="u" horiz-adv-x="1114" 
d="M1008 0h-287l-33 94q-155 -114 -319 -114q-271 0 -271 278v778h332v-643q0 -66 20 -92.5t62 -26.5q67 0 164 62v700h332v-1036z" />
    <glyph glyph-name="v" unicode="v" horiz-adv-x="1120" 
d="M1130 1036l-419 -1036h-324l-397 1036h346l219 -669l238 669h337z" />
    <glyph glyph-name="w" unicode="w" horiz-adv-x="1486" 
d="M1487 1036l-295 -1036h-297l-152 465l-151 -465h-297l-295 1036h332l139 -639l137 451h271l137 -451l139 639h332z" />
    <glyph glyph-name="x" unicode="x" horiz-adv-x="1101" 
d="M1094 0h-371l-174 279l-176 -279h-365l363 522l-351 514h371l160 -262l160 262h364l-356 -497z" />
    <glyph glyph-name="y" unicode="y" horiz-adv-x="1103" 
d="M1114 1036l-571 -1446h-332l178 410h-2l-397 1036h348l211 -618l215 618h350z" />
    <glyph glyph-name="z" unicode="z" horiz-adv-x="940" 
d="M891 0h-828v258l406 510h-393v268h794v-258l-415 -510h436v-268z" />
    <glyph glyph-name="braceleft" unicode="{" horiz-adv-x="720" 
d="M676 -467q-81 7 -141 18.5t-109 34t-82 49t-58 72t-39 94.5t-22.5 125.5t-11 155.5t-2.5 194q0 88 -14.5 133t-43.5 62t-90 25v225q61 8 90 25t43.5 61.5t14.5 132.5q0 115 2.5 194t11 155.5t22.5 125.5t39 94.5t58 72t82 49t109 34t141 18.5v-221q-30 -2 -52.5 -7.5
t-41.5 -13.5t-32 -26.5t-23 -36.5t-16 -53.5t-10 -67.5t-6 -89t-2.5 -107.5t-0.5 -132.5q0 -201 -132 -320q132 -119 132 -319q0 -74 0.5 -120.5t2 -100t4 -84.5t7.5 -66.5t12 -54.5t17.5 -40t23 -31t30.5 -19.5t39 -13t48 -5.5v-221z" />
    <glyph glyph-name="bar" unicode="|" horiz-adv-x="481" 
d="M358 -434h-235v1896h235v-1896z" />
    <glyph glyph-name="braceright" unicode="}" horiz-adv-x="720" 
d="M657 496q-61 -7 -90 -24.5t-43 -62.5t-14 -133q0 -115 -2.5 -194t-11 -155.5t-22.5 -125.5t-39 -94.5t-58 -72t-82 -49t-109 -34t-141 -18.5v221q27 2 48 5.5t39 13t30.5 19.5t23 31t17.5 40t12 54.5t7.5 66.5t4 84.5t2 100t0.5 120.5q0 201 131 319q-131 118 -131 320
q0 82 -0.5 132.5t-2.5 107.5t-6 89t-10 67.5t-16 53.5t-23 36.5t-32 26.5t-41.5 13.5t-52.5 7.5v221q81 -7 141 -18.5t109 -34t82 -49t58 -72t39 -94.5t22.5 -125.5t11 -155.5t2.5 -194q0 -67 6.5 -106.5t25 -63.5t44 -33.5t71.5 -15.5v-225z" />
    <glyph glyph-name="asciitilde" unicode="~" 
d="M958 545q-106 -78 -266 -78q-64 0 -130.5 24t-128 48t-111.5 24q-83 0 -148.5 -28.5t-134.5 -83.5v309q53 39 133 68.5t150 29.5q73 0 142.5 -24t129.5 -48t111 -24q154 0 253 92v-309z" />
    <glyph glyph-name="uni00A0" unicode="&#xa0;" horiz-adv-x="1304" 
 />
    <glyph glyph-name="exclamdown" unicode="&#xa1;" horiz-adv-x="581" 
d="M481 1231q0 -104 -43.5 -149.5t-146.5 -45.5t-147 45.5t-44 149.5t44 150t147 46t146.5 -46t43.5 -150zM467 -35h-352l20 1006h311z" />
    <glyph glyph-name="cent" unicode="&#xa2;" horiz-adv-x="927" 
d="M868 8q-61 -12 -161 -22v-215h-189v204q-116 1 -202.5 39.5t-139 109t-78.5 164.5t-26 212q0 102 14.5 184t47.5 150.5t84.5 115.5t127 74t172.5 29v176h189v-185q96 -8 149 -14l-14 -262q-78 20 -135 27v-557q71 13 139 30zM518 231v568q-67 -17 -91 -85t-24 -214
q0 -135 27.5 -195t87.5 -74z" />
    <glyph glyph-name="sterling" unicode="&#xa3;" horiz-adv-x="1259" 
d="M1153 10q-224 -35 -393 -35q-51 0 -184.5 10.5t-188.5 10.5q-104 0 -266 -27l-21 258q76 15 162 25q21 110 21 194q0 61 -19 162h-160v252h97q-21 96 -21 164q0 88 26.5 162.5t84 138.5t161 100.5t244.5 36.5q214 0 416 -80l-25 -274q-121 53 -209 73.5t-180 20.5
q-112 0 -155 -45.5t-43 -146.5q0 -62 18 -150h404v-252h-355q2 -18 2 -57q0 -132 -26 -305q195 -15 223 -15q160 0 364 54z" />
    <glyph glyph-name="currency" unicode="&#xa4;" horiz-adv-x="1327" 
d="M1161 360q-94 -98 -143 -145q-24 23 -72 69.5t-72 69.5q-104 -65 -233 -65q-132 0 -233 65q-12 -11 -63.5 -62t-80.5 -77q-96 96 -143 145q132 126 143 136q-67 113 -67 229q0 121 67 229q-61 56 -143 138q47 49 143 145q29 -26 80.5 -77t63.5 -62q103 65 233 65
q131 0 233 -65q24 23 72 69.5t72 69.5q49 -47 143 -145q-82 -82 -143 -138q67 -109 67 -229q0 -116 -67 -229q11 -10 143 -136zM881 727q0 99 -72.5 166.5t-167.5 67.5q-100 0 -170 -68.5t-70 -165.5t71 -166t169 -69t169 69t71 166z" />
    <glyph glyph-name="yen" unicode="&#xa5;" horiz-adv-x="1236" 
d="M1217 1438l-267 -518h172v-220h-284l-39 -77h323v-220h-346v-403h-315v403h-346v220h323l-39 77h-284v220h172l-267 518h353l252 -518l264 518h328z" />
    <glyph glyph-name="brokenbar" unicode="&#xa6;" horiz-adv-x="481" 
d="M358 823h-235v865h235v-865zM358 -471h-235v864h235v-864z" />
    <glyph glyph-name="section" unicode="&#xa7;" horiz-adv-x="1110" 
d="M1038 -18q0 -58 -12.5 -111t-47 -109.5t-88 -97.5t-144 -67.5t-207.5 -26.5q-219 0 -455 88l25 291q232 -125 419 -125q114 0 161.5 42t47.5 107q0 27 -13.5 51t-31 39.5t-47.5 31.5t-49.5 23.5t-50.5 18.5q-20 7 -61.5 21t-65.5 22.5t-63 24t-63.5 28t-57.5 32t-54 38.5
t-43.5 45.5t-35 55t-21 64t-8.5 75.5q0 81 29.5 151t97.5 142q-88 88 -88 225q0 83 26.5 153t81.5 127t150 89t223 32q187 0 409 -82l-24 -290q-132 72 -219 95t-168 23q-92 0 -135 -37.5t-43 -101.5q0 -21 12.5 -39.5t27 -30.5t43 -25t42 -17.5l43.5 -14.5q8 -3 12 -4
q14 -4 42 -13q42 -13 64 -20t62 -21t62.5 -25t55.5 -29.5t52.5 -36t42.5 -43t34.5 -53t20 -62.5t8.5 -74q0 -81 -33 -150.5t-98 -142.5q133 -105 133 -286zM735 524q0 25 -13 47t-29.5 36t-45 28.5t-46 21t-46.5 15.5q-20 7 -59.5 19.5t-49.5 15.5q-73 -79 -73 -136
q0 -24 13.5 -45t30.5 -34.5t46 -27.5t47 -20.5t46 -16.5l9 -3q13 -4 46 -15.5t51 -17.5q73 85 73 133z" />
    <glyph glyph-name="dieresis" unicode="&#xa8;" horiz-adv-x="747" 
d="M748 1362q0 -79 -34.5 -115.5t-113.5 -36.5q-78 0 -112.5 36.5t-34.5 115.5t34 114t113 35t113.5 -35t34.5 -114zM295 1362q0 -79 -34.5 -115.5t-113.5 -36.5q-78 0 -112.5 36.5t-34.5 115.5t34 114t113 35t113.5 -35t34.5 -114z" />
    <glyph glyph-name="copyright" unicode="&#xa9;" horiz-adv-x="1642" 
d="M1561 719q0 -744 -740 -744q-739 0 -739 744q0 743 739 743q740 0 740 -743zM1333 719q0 103 -12 179.5t-45.5 145t-90 111t-148 67.5t-216.5 25t-216.5 -25t-147.5 -67.5t-89 -111.5t-45 -145t-12 -179t12 -179t45 -144.5t89.5 -111t147.5 -67t216 -24.5q105 0 185.5 16
t136.5 49t93.5 76.5t58.5 105.5t29.5 128t8.5 151zM1087 338q-91 -35 -241 -35q-80 0 -142 11.5t-103 28.5t-69.5 50.5t-43.5 62t-22.5 78.5t-9 85.5t-1.5 97.5q0 224 81.5 321t292.5 97q135 0 254 -33l-16 -187q-131 41 -231 41q-60 0 -89 -14t-45 -66t-16 -159
q0 -58 2.5 -96t11 -65t18 -41.5t30.5 -22.5t41 -9.5t57 -1.5q107 0 225 41z" />
    <glyph glyph-name="ordfeminine" unicode="&#xaa;" horiz-adv-x="757" 
d="M666 797h-172l-21 51q-107 -64 -207 -64q-209 0 -209 189q0 74 19 119.5t69 73t125.5 37.5t198.5 9v23q0 46 -18.5 62t-67.5 16q-122 0 -266 -58v166q62 18 140 29.5t130 11.5q135 0 207 -47t72 -160v-458zM469 977v102q-136 3 -179.5 -13.5t-43.5 -76.5q0 -67 78 -67
q71 0 145 55z" />
    <glyph glyph-name="guillemotleft" unicode="&#xab;" horiz-adv-x="1243" 
d="M1151 -35l-496 443v186l496 442v-334l-215 -200l215 -203v-334zM580 -35l-496 443v186l496 442v-334l-215 -200l215 -203v-334z" />
    <glyph glyph-name="logicalnot" unicode="&#xac;" 
d="M889 354h-246v375h-534v236h780v-611z" />
    <glyph glyph-name="uni00AD" unicode="&#xad;" horiz-adv-x="800" 
d="M729 393h-657v293h657v-293z" />
    <glyph glyph-name="registered" unicode="&#xae;" horiz-adv-x="1642" 
d="M1561 719q0 -744 -740 -744q-739 0 -739 744q0 743 739 743q740 0 740 -743zM1333 719q0 103 -12 179.5t-45.5 145t-90 111t-148 67.5t-216.5 25t-216.5 -25t-147.5 -67.5t-89 -111.5t-45 -145t-12 -179t12 -179t45 -144.5t89.5 -111t147.5 -67t216 -24.5q105 0 185.5 16
t136.5 49t93.5 76.5t58.5 105.5t29.5 128t8.5 151zM1178 315h-256l-172 289h-17v-289h-227v807h391q67 0 112.5 -19.5t69.5 -56t33.5 -79.5t9.5 -99q0 -204 -125 -252zM899 868q0 50 -12.5 62t-52.5 12h-101v-160h94q46 0 59 13.5t13 72.5z" />
    <glyph glyph-name="macron" unicode="&#xaf;" horiz-adv-x="606" 
d="M606 1235h-606v188h606v-188z" />
    <glyph glyph-name="degree" unicode="&#xb0;" horiz-adv-x="602" 
d="M571 1192q0 -112 -78.5 -191t-191.5 -79t-191.5 79t-78.5 191t78.5 191t191.5 79t191.5 -79t78.5 -191zM430 1192q0 52 -38 90.5t-91 38.5q-52 0 -88.5 -38t-36.5 -91q0 -52 36 -88.5t89 -36.5t91 36.5t38 88.5z" />
    <glyph glyph-name="plusminus" unicode="&#xb1;" 
d="M889 668h-273v-273h-235v273h-272v235h272v273h235v-273h273v-235zM889 0h-780v236h780v-236z" />
    <glyph glyph-name="twosuperior" unicode="&#xb2;" horiz-adv-x="911" 
d="M791 1208q0 -88 -79.5 -187.5t-228.5 -223.5h305v-199h-663v180q175 137 255.5 208.5t111 117t30.5 92.5q0 34 -17 52t-65 18t-100 -12.5t-88.5 -27t-108.5 -46.5l-20 206q102 44 170 60t168 16q330 0 330 -254z" />
    <glyph glyph-name="threesuperior" unicode="&#xb3;" horiz-adv-x="888" 
d="M807 870q0 -144 -105.5 -214t-275.5 -70q-169 0 -334 59l23 211q193 -78 307 -78q71 0 94 18.5t23 71.5q0 38 -24 51t-89 13h-199v196h152q48 0 72.5 2.5t37.5 13.5t15 23t2 41q0 32 -17.5 47t-72.5 15q-58 0 -121 -19t-160 -63l-20 211q84 32 150 47.5t153 15.5
q158 0 254 -58t96 -181q0 -107 -45 -160q84 -60 84 -193z" />
    <glyph glyph-name="acute" unicode="&#xb4;" horiz-adv-x="567" 
d="M567 1606l-43 -281l-524 -180v211z" />
    <glyph glyph-name="mu" unicode="&#xb5;" horiz-adv-x="1114" 
d="M1008 0h-287l-33 94q-126 -94 -258 -110v-394h-332v1446h332v-643q0 -66 20 -92.5t62 -26.5q67 0 164 62v700h332v-1036z" />
    <glyph glyph-name="paragraph" unicode="&#xb6;" horiz-adv-x="1224" 
d="M1122 -246h-221v1524h-119v-1524h-221v801h-84q-63 0 -115 9.5t-104.5 37.5t-88.5 73t-58.5 121.5t-22.5 178.5q0 90 9.5 157.5t35.5 127.5t70 97.5t114 59t166 21.5h639v-1684z" />
    <glyph glyph-name="periodcentered" unicode="&#xb7;" horiz-adv-x="514" 
d="M446 705q0 -104 -43.5 -150.5t-146.5 -46.5t-146.5 46.5t-43.5 150.5t43.5 149t146.5 45t146.5 -45t43.5 -149z" />
    <glyph glyph-name="cedilla" unicode="&#xb8;" horiz-adv-x="509" 
d="M510 -113l-301 -450l-209 31l215 419h295z" />
    <glyph glyph-name="onesuperior" unicode="&#xb9;" horiz-adv-x="765" 
d="M676 590h-559v196h147v402l-139 -53l-23 211l238 92h188v-652h148v-196z" />
    <glyph glyph-name="ordmasculine" unicode="&#xba;" horiz-adv-x="843" 
d="M758 1122q0 -175 -81.5 -257.5t-254.5 -82.5t-254.5 82.5t-81.5 257.5t81.5 257.5t254.5 82.5t254.5 -82.5t81.5 -257.5zM551 1122q0 114 -26.5 148.5t-102.5 34.5t-102.5 -34.5t-26.5 -148.5q0 -78 12.5 -117t38.5 -52t78 -13t78 13t38.5 52t12.5 117z" />
    <glyph glyph-name="guillemotright" unicode="&#xbb;" horiz-adv-x="1243" 
d="M1159 408l-495 -443v334l215 203l-215 200v334l495 -442v-186zM588 408l-496 -443v334l215 203l-215 200v334l496 -442v-186z" />
    <glyph glyph-name="onequarter" unicode="&#xbc;" horiz-adv-x="1994" 
d="M1905 158h-119v-158h-244v158h-432l-18 176l469 514h225v-498h119v-192zM1434 1438l-654 -1438h-254l650 1438h258zM676 590h-559v196h147v402l-139 -53l-23 211l238 92h188v-652h148v-196zM1542 350v203l-186 -203h186z" />
    <glyph glyph-name="onehalf" unicode="&#xbd;" horiz-adv-x="2045" 
d="M1929 610q0 -89 -79.5 -188t-227.5 -223h305v-199h-663v180q175 137 255.5 208.5t111 117t30.5 92.5q0 34 -17 52t-65 18t-100 -12.5t-88.5 -27t-108.5 -46.5l-20 206q102 44 169.5 60t167.5 16q330 0 330 -254zM1413 1438l-653 -1438h-254l649 1438h258zM676 590h-559
v196h147v402l-139 -53l-23 211l238 92h188v-652h148v-196z" />
    <glyph glyph-name="threequarters" unicode="&#xbe;" horiz-adv-x="2136" 
d="M2046 158h-119v-158h-244v158h-432l-18 176l469 514h225v-498h119v-192zM1554 1438l-653 -1438h-254l649 1438h258zM807 870q0 -144 -105.5 -214t-275.5 -70q-169 0 -334 59l23 211q193 -78 307 -78q71 0 94 18.5t23 71.5q0 38 -24 51t-89 13h-199v196h152q48 0 72.5 2.5
t37.5 13.5t15 23t2 41q0 32 -17.5 47t-72.5 15q-58 0 -121 -19t-160 -63l-20 211q84 32 150 47.5t153 15.5q158 0 254 -58t96 -181q0 -107 -45 -160q84 -60 84 -193zM1683 350v203l-186 -203h186z" />
    <glyph glyph-name="questiondown" unicode="&#xbf;" horiz-adv-x="1017" 
d="M784 1231q0 -104 -43.5 -149.5t-146.5 -45.5t-147 45.5t-44 149.5t44 150t147 46t146.5 -46t43.5 -150zM942 14q-195 -73 -395 -73q-475 0 -475 366q0 76 20 138t52 101.5t70.5 71t77 54t70.5 42.5t52 43.5t20 51.5v162h318v-180q0 -58 -19 -103.5t-49 -74t-66.5 -52
t-73 -45.5t-66.5 -46t-49 -60.5t-19 -83.5q0 -125 149 -125q73 0 156 20t211 70z" />
    <glyph glyph-name="Agrave" unicode="&#xc0;" horiz-adv-x="1300" 
d="M915 1767l-26 -213l-541 189v276zM1311 0h-357l-96 336h-428l-102 -336h-338l495 1438h349zM782 598l-133 459l-139 -459h272z" />
    <glyph glyph-name="Aacute" unicode="&#xc1;" horiz-adv-x="1300" 
d="M997 2015l-43 -280l-524 -181v211zM1311 0h-357l-96 336h-428l-102 -336h-338l495 1438h349zM782 598l-133 459l-139 -459h272z" />
    <glyph glyph-name="Acircumflex" unicode="&#xc2;" horiz-adv-x="1300" 
d="M1001 1763l-26 -204l-334 170l-342 -175v213l342 209zM1311 0h-357l-96 336h-428l-102 -336h-338l495 1438h349zM782 598l-133 459l-139 -459h272z" />
    <glyph glyph-name="Atilde" unicode="&#xc3;" horiz-adv-x="1300" 
d="M991 1911l-12 -244q-65 -41 -201 -41q-53 0 -130 28.5t-138 28.5q-105 0 -203 -61v233q37 21 97.5 36.5t105.5 15.5q64 0 116 -14.5t92 -29t75 -14.5q124 0 198 62zM1311 0h-357l-96 336h-428l-102 -336h-338l495 1438h349zM782 598l-133 459l-139 -459h272z" />
    <glyph glyph-name="Adieresis" unicode="&#xc4;" horiz-adv-x="1300" 
d="M1034 1772q0 -79 -34.5 -115.5t-112.5 -36.5q-79 0 -113.5 36.5t-34.5 115.5t34.5 114t113.5 35t113 -35t34 -114zM582 1772q0 -79 -34.5 -115.5t-113.5 -36.5q-78 0 -112.5 36.5t-34.5 115.5t34 114t113 35t113.5 -35t34.5 -114zM1311 0h-357l-96 336h-428l-102 -336
h-338l495 1438h349zM782 598l-133 459l-139 -459h272z" />
    <glyph glyph-name="Aring" unicode="&#xc5;" horiz-adv-x="1300" 
d="M860 1759q0 -96 -60.5 -150.5t-154.5 -54.5t-154.5 54.5t-60.5 150.5t60.5 150.5t154.5 54.5t154.5 -54.5t60.5 -150.5zM1311 0h-357l-96 336h-428l-102 -336h-338l495 1438h349zM713 1759q0 35 -15.5 50.5t-52.5 15.5t-52 -15.5t-15 -50.5t15 -50t52 -15t52.5 15
t15.5 50zM782 598l-133 459l-139 -459h272z" />
    <glyph glyph-name="AE" unicode="&#xc6;" horiz-adv-x="1880" 
d="M1800 0h-915v336h-383l-154 -336h-358l721 1438h1089v-277h-579v-287h495v-276h-495v-322h579v-276zM885 598v567l-262 -567h262z" />
    <glyph glyph-name="Ccedilla" unicode="&#xc7;" horiz-adv-x="1167" 
d="M1112 31q-50 -22 -153 -39t-228 -17q-103 0 -186.5 12.5t-146 31t-110.5 54.5t-80.5 69.5t-54.5 90t-34 101t-18 118.5t-7.5 126t-1.5 139q0 203 29.5 339.5t101 229.5t189 134.5t293.5 41.5q245 0 399 -53l-23 -289q-198 66 -366 66q-56 0 -93.5 -6t-71 -24.5t-54 -50.5
t-35.5 -84.5t-21 -126.5t-6 -177q0 -82 2.5 -142t10 -109.5t17 -82t28.5 -57.5t38.5 -38.5t52 -22t66 -11t82.5 -2.5q97 0 194.5 19t164.5 46zM920 -113l-302 -450l-208 31l215 419h295z" />
    <glyph glyph-name="Egrave" unicode="&#xc8;" horiz-adv-x="1112" 
d="M813 1767l-27 -213l-540 189v276zM1032 0h-915v1438h915v-277h-579v-287h495v-276h-495v-322h579v-276z" />
    <glyph glyph-name="Eacute" unicode="&#xc9;" horiz-adv-x="1112" 
d="M915 2015l-43 -280l-524 -181v211zM1032 0h-915v1438h915v-277h-579v-287h495v-276h-495v-322h579v-276z" />
    <glyph glyph-name="Ecircumflex" unicode="&#xca;" horiz-adv-x="1112" 
d="M928 1763l-27 -204l-334 170l-342 -175v213l342 209zM1032 0h-915v1438h915v-277h-579v-287h495v-276h-495v-322h579v-276z" />
    <glyph glyph-name="Edieresis" unicode="&#xcb;" horiz-adv-x="1112" 
d="M952 1772q0 -79 -34.5 -115.5t-112.5 -36.5q-79 0 -113.5 36.5t-34.5 115.5t34.5 114t113.5 35t113 -35t34 -114zM500 1772q0 -79 -34.5 -115.5t-113.5 -36.5q-78 0 -112.5 36.5t-34.5 115.5t34 114t113 35t113.5 -35t34.5 -114zM1032 0h-915v1438h915v-277h-579v-287
h495v-276h-495v-322h579v-276z" />
    <glyph glyph-name="Igrave" unicode="&#xcc;" horiz-adv-x="581" 
d="M526 1767l-26 -213l-541 189v276zM459 0h-336v1438h336v-1438z" />
    <glyph glyph-name="Iacute" unicode="&#xcd;" horiz-adv-x="581" 
d="M633 2015l-43 -280l-524 -181v211zM459 0h-336v1438h336v-1438z" />
    <glyph glyph-name="Icircumflex" unicode="&#xce;" horiz-adv-x="581" 
d="M641 1763l-27 -204l-333 170l-342 -175v213l342 209zM459 0h-336v1438h336v-1438z" />
    <glyph glyph-name="Idieresis" unicode="&#xcf;" horiz-adv-x="581" 
d="M666 1772q0 -79 -34.5 -115.5t-113.5 -36.5q-78 0 -112.5 36.5t-34.5 115.5t34 114t113 35t113.5 -35t34.5 -114zM213 1772q0 -79 -34.5 -115.5t-112.5 -36.5q-79 0 -113.5 36.5t-34.5 115.5t34.5 114t113.5 35t113 -35t34 -114zM459 0h-336v1438h336v-1438z" />
    <glyph glyph-name="Eth" unicode="&#xd0;" horiz-adv-x="1292" 
d="M1200 717q0 -117 -4 -193.5t-18 -159.5t-40.5 -134t-71 -99.5t-110.5 -74t-158 -41t-214 -15.5h-467v584h-117v276h117v578h485q123 0 216 -19t159 -60.5t109.5 -98.5t68.5 -141.5t35 -179.5t10 -222zM862 719q0 80 -1.5 134t-7 103t-12.5 78.5t-22 54.5t-32 37.5
t-45.5 21t-59 11t-76.5 2.5h-153v-301h256v-276h-256v-308h143q48 0 84 4t64 17t47 27.5t32.5 44t21 57.5t11.5 78.5t5 95.5t1 119z" />
    <glyph glyph-name="Ntilde" unicode="&#xd1;" horiz-adv-x="1376" 
d="M991 1911l-12 -244q-65 -41 -201 -41q-53 0 -130 28.5t-138 28.5q-105 0 -203 -61v233q37 21 97.5 36.5t105.5 15.5q64 0 116 -14.5t92 -29t75 -14.5q124 0 198 62zM1260 0h-336l-471 795v-795h-336v1438h336l471 -817v817h336v-1438z" />
    <glyph glyph-name="Ograve" unicode="&#xd2;" horiz-adv-x="1376" 
d="M928 1767l-27 -213l-541 189v276zM1284 719q0 -90 -4.5 -160t-20 -150.5t-41 -140.5t-70.5 -117.5t-106.5 -94t-151.5 -59t-202 -22.5t-202 22.5t-151.5 59t-106.5 94t-70.5 117.5t-41 140.5t-20 150.5t-4.5 160t4.5 160t20 150.5t41 140t70.5 117t106.5 94.5t151.5 59
t202 22t202 -22t151.5 -59t106.5 -94.5t70.5 -117t41 -140t20 -150.5t4.5 -160zM942 719q0 70 -1 115t-5 96t-11 82t-20 64t-31.5 51t-44.5 33.5t-61 21.5t-80 6t-80 -6t-61 -21.5t-44.5 -33.5t-31.5 -51t-20 -64t-11 -82t-5 -96t-1 -115t1 -115t5 -96t11 -82t20 -64
t31.5 -51t44.5 -33.5t61 -21.5t80 -6t80 6t61 21.5t44.5 33.5t31.5 51t20 64t11 82t5 96t1 115z" />
    <glyph glyph-name="Oacute" unicode="&#xd3;" horiz-adv-x="1376" 
d="M1038 2015l-43 -280l-524 -181v211zM1284 719q0 -90 -4.5 -160t-20 -150.5t-41 -140.5t-70.5 -117.5t-106.5 -94t-151.5 -59t-202 -22.5t-202 22.5t-151.5 59t-106.5 94t-70.5 117.5t-41 140.5t-20 150.5t-4.5 160t4.5 160t20 150.5t41 140t70.5 117t106.5 94.5t151.5 59
t202 22t202 -22t151.5 -59t106.5 -94.5t70.5 -117t41 -140t20 -150.5t4.5 -160zM942 719q0 70 -1 115t-5 96t-11 82t-20 64t-31.5 51t-44.5 33.5t-61 21.5t-80 6t-80 -6t-61 -21.5t-44.5 -33.5t-31.5 -51t-20 -64t-11 -82t-5 -96t-1 -115t1 -115t5 -96t11 -82t20 -64
t31.5 -51t44.5 -33.5t61 -21.5t80 -6t80 6t61 21.5t44.5 33.5t31.5 51t20 64t11 82t5 96t1 115z" />
    <glyph glyph-name="Ocircumflex" unicode="&#xd4;" horiz-adv-x="1376" 
d="M1051 1763l-27 -204l-334 170l-342 -175v213l342 209zM1284 719q0 -90 -4.5 -160t-20 -150.5t-41 -140.5t-70.5 -117.5t-106.5 -94t-151.5 -59t-202 -22.5t-202 22.5t-151.5 59t-106.5 94t-70.5 117.5t-41 140.5t-20 150.5t-4.5 160t4.5 160t20 150.5t41 140t70.5 117
t106.5 94.5t151.5 59t202 22t202 -22t151.5 -59t106.5 -94.5t70.5 -117t41 -140t20 -150.5t4.5 -160zM942 719q0 70 -1 115t-5 96t-11 82t-20 64t-31.5 51t-44.5 33.5t-61 21.5t-80 6t-80 -6t-61 -21.5t-44.5 -33.5t-31.5 -51t-20 -64t-11 -82t-5 -96t-1 -115t1 -115t5 -96
t11 -82t20 -64t31.5 -51t44.5 -33.5t61 -21.5t80 -6t80 6t61 21.5t44.5 33.5t31.5 51t20 64t11 82t5 96t1 115z" />
    <glyph glyph-name="Otilde" unicode="&#xd5;" horiz-adv-x="1376" 
d="M1018 1911l-12 -244q-65 -41 -201 -41q-53 0 -130 28.5t-138 28.5q-105 0 -203 -61v233q37 21 97.5 36.5t105.5 15.5q64 0 116 -14.5t91.5 -29t74.5 -14.5q54 0 108.5 16t90.5 46zM1284 719q0 -90 -4.5 -160t-20 -150.5t-41 -140.5t-70.5 -117.5t-106.5 -94t-151.5 -59
t-202 -22.5t-202 22.5t-151.5 59t-106.5 94t-70.5 117.5t-41 140.5t-20 150.5t-4.5 160t4.5 160t20 150.5t41 140t70.5 117t106.5 94.5t151.5 59t202 22t202 -22t151.5 -59t106.5 -94.5t70.5 -117t41 -140t20 -150.5t4.5 -160zM942 719q0 70 -1 115t-5 96t-11 82t-20 64
t-31.5 51t-44.5 33.5t-61 21.5t-80 6t-80 -6t-61 -21.5t-44.5 -33.5t-31.5 -51t-20 -64t-11 -82t-5 -96t-1 -115t1 -115t5 -96t11 -82t20 -64t31.5 -51t44.5 -33.5t61 -21.5t80 -6t80 6t61 21.5t44.5 33.5t31.5 51t20 64t11 82t5 96t1 115z" />
    <glyph glyph-name="Odieresis" unicode="&#xd6;" horiz-adv-x="1376" 
d="M1055 1772q0 -79 -34.5 -115.5t-113.5 -36.5q-78 0 -112.5 36.5t-34.5 115.5t34 114t113 35t113.5 -35t34.5 -114zM602 1772q0 -79 -34.5 -115.5t-112.5 -36.5q-79 0 -113.5 36.5t-34.5 115.5t34.5 114t113.5 35t113 -35t34 -114zM1284 719q0 -90 -4.5 -160t-20 -150.5
t-41 -140.5t-70.5 -117.5t-106.5 -94t-151.5 -59t-202 -22.5t-202 22.5t-151.5 59t-106.5 94t-70.5 117.5t-41 140.5t-20 150.5t-4.5 160t4.5 160t20 150.5t41 140t70.5 117t106.5 94.5t151.5 59t202 22t202 -22t151.5 -59t106.5 -94.5t70.5 -117t41 -140t20 -150.5
t4.5 -160zM942 719q0 70 -1 115t-5 96t-11 82t-20 64t-31.5 51t-44.5 33.5t-61 21.5t-80 6t-80 -6t-61 -21.5t-44.5 -33.5t-31.5 -51t-20 -64t-11 -82t-5 -96t-1 -115t1 -115t5 -96t11 -82t20 -64t31.5 -51t44.5 -33.5t61 -21.5t80 -6t80 6t61 21.5t44.5 33.5t31.5 51t20 64
t11 82t5 96t1 115z" />
    <glyph glyph-name="multiply" unicode="&#xd7;" 
d="M858 469l-166 -166l-194 193l-193 -193l-166 166l193 193l-193 194l166 166l193 -193l194 193l166 -166l-192 -192z" />
    <glyph glyph-name="Oslash" unicode="&#xd8;" horiz-adv-x="1376" 
d="M1284 719q0 -90 -4.5 -160t-20 -150.5t-41 -140.5t-70.5 -117.5t-106.5 -94t-151.5 -59t-202 -22.5q-130 0 -242 33l-49 -100h-237l100 209q-98 97 -133 247.5t-35 354.5q0 90 4.5 160t20 150.5t41 140t70.5 117t106.5 94.5t151.5 59t202 22q110 0 203 -22l43 90h242
l-89 -182q61 -49 102 -119t60.5 -156.5t27 -168t7.5 -185.5zM768 1182q-35 6 -80 6t-80 -6t-61 -21.5t-44.5 -33.5t-31.5 -51t-20 -64t-11 -82t-5 -96t-1 -115q0 -160 6 -221zM942 719q0 209 -16 291l-357 -744q41 -16 119 -16q45 0 80 6t61 21.5t44.5 33.5t31.5 51t20 64
t11 82t5 96t1 115z" />
    <glyph glyph-name="Ugrave" unicode="&#xd9;" horiz-adv-x="1339" 
d="M895 1767l-27 -213l-540 189v276zM1231 573q0 -110 -17 -198t-57 -164t-103.5 -127t-160.5 -80t-223 -29t-223 29t-160.5 80t-103.5 127t-57 164t-17 198v865h335v-863q0 -172 47.5 -239.5t178.5 -67.5t178 67.5t47 239.5v863h336v-865z" />
    <glyph glyph-name="Uacute" unicode="&#xda;" horiz-adv-x="1339" 
d="M1018 2015l-43 -280l-524 -181v211zM1231 573q0 -110 -17 -198t-57 -164t-103.5 -127t-160.5 -80t-223 -29t-223 29t-160.5 80t-103.5 127t-57 164t-17 198v865h335v-863q0 -172 47.5 -239.5t178.5 -67.5t178 67.5t47 239.5v863h336v-865z" />
    <glyph glyph-name="Ucircumflex" unicode="&#xdb;" horiz-adv-x="1339" 
d="M1026 1763l-27 -204l-333 170l-342 -175v213l342 209zM1231 573q0 -110 -17 -198t-57 -164t-103.5 -127t-160.5 -80t-223 -29t-223 29t-160.5 80t-103.5 127t-57 164t-17 198v865h335v-863q0 -172 47.5 -239.5t178.5 -67.5t178 67.5t47 239.5v863h336v-865z" />
    <glyph glyph-name="Udieresis" unicode="&#xdc;" horiz-adv-x="1339" 
d="M1034 1772q0 -79 -34.5 -115.5t-112.5 -36.5q-79 0 -113.5 36.5t-34.5 115.5t34.5 114t113.5 35t113 -35t34 -114zM582 1772q0 -79 -34.5 -115.5t-113.5 -36.5q-78 0 -112.5 36.5t-34.5 115.5t34 114t113 35t113.5 -35t34.5 -114zM1231 573q0 -110 -17 -198t-57 -164
t-103.5 -127t-160.5 -80t-223 -29t-223 29t-160.5 80t-103.5 127t-57 164t-17 198v865h335v-863q0 -172 47.5 -239.5t178.5 -67.5t178 67.5t47 239.5v863h336v-865z" />
    <glyph glyph-name="Yacute" unicode="&#xdd;" horiz-adv-x="1183" 
d="M956 2015l-43 -280l-524 -181v211zM1206 1438l-446 -860v-578h-336v578l-447 860h375l246 -500l258 500h350z" />
    <glyph glyph-name="Thorn" unicode="&#xde;" horiz-adv-x="1193" 
d="M1135 717q0 -80 -12.5 -148t-41 -127.5t-72 -101.5t-109 -66t-148.5 -24h-299v-250h-336v1438h336v-232h288q76 0 136.5 -14t101.5 -37t70.5 -60.5t45.5 -75.5t25.5 -92t12 -100t2.5 -110zM807 737q0 71 -6 107.5t-30 57t-55.5 24.5t-99.5 4h-163v-404h204q41 0 68 7.5
t44 20.5t25 41t10.5 58.5t2.5 83.5z" />
    <glyph glyph-name="germandbls" unicode="&#xdf;" horiz-adv-x="1243" 
d="M1192 317q0 -182 -103 -262t-317 -80q-88 0 -150.5 10.5t-150.5 34.5l39 259q143 -58 258 -58q39 0 64 7t36 22.5t14 31t3 40.5q0 29 -23.5 50t-61 36t-82.5 31t-90 40.5t-82.5 57.5t-61 90t-23.5 131q0 43 18.5 79t46.5 59.5t61 47.5t61 42.5t46.5 43.5t18.5 53
q0 67 -37.5 102.5t-108.5 35.5q-149 0 -149 -177v-1044h-312v1014q0 209 114 328.5t333 119.5q96 0 175.5 -23.5t139 -70.5t92.5 -121.5t33 -171.5q0 -45 -21.5 -81t-52.5 -58.5t-61.5 -40.5t-52 -37t-21.5 -39q0 -19 22.5 -35.5t58.5 -32t79.5 -35t87 -52t79.5 -76
t58.5 -113.5t22.5 -158z" />
    <glyph glyph-name="agrave" unicode="&#xe0;" horiz-adv-x="1071" 
d="M752 1358l-27 -213l-541 188v277zM973 0h-293l-29 90q-165 -110 -321 -110q-119 0 -196 75t-77 219q0 74 10.5 126.5t37 95t68.5 68.5t109 43t154.5 23.5t208.5 4.5v29q0 27 -1 42.5t-9 38.5t-22.5 35t-43 21.5t-69.5 9.5q-91 0 -188 -20t-162 -46v252q183 56 430 56
q89 0 157 -15.5t123 -50.5t84 -98t29 -152v-737zM645 283v149q-52 4 -91.5 2t-67.5 -2.5t-48 -8t-32 -15t-18.5 -23t-8.5 -32t-2 -42.5q0 -102 82 -102q87 0 186 74z" />
    <glyph glyph-name="aacute" unicode="&#xe1;" horiz-adv-x="1071" 
d="M895 1606l-43 -281l-524 -180v211zM973 0h-293l-29 90q-165 -110 -321 -110q-119 0 -196 75t-77 219q0 74 10.5 126.5t37 95t68.5 68.5t109 43t154.5 23.5t208.5 4.5v29q0 27 -1 42.5t-9 38.5t-22.5 35t-43 21.5t-69.5 9.5q-91 0 -188 -20t-162 -46v252q183 56 430 56
q89 0 157 -15.5t123 -50.5t84 -98t29 -152v-737zM645 283v149q-52 4 -91.5 2t-67.5 -2.5t-48 -8t-32 -15t-18.5 -23t-8.5 -32t-2 -42.5q0 -102 82 -102q87 0 186 74z" />
    <glyph glyph-name="acircumflex" unicode="&#xe2;" horiz-adv-x="1071" 
d="M887 1354l-27 -205l-334 170l-342 -174v213l342 209zM973 0h-293l-29 90q-165 -110 -321 -110q-119 0 -196 75t-77 219q0 74 10.5 126.5t37 95t68.5 68.5t109 43t154.5 23.5t208.5 4.5v29q0 27 -1 42.5t-9 38.5t-22.5 35t-43 21.5t-69.5 9.5q-91 0 -188 -20t-162 -46v252
q183 56 430 56q89 0 157 -15.5t123 -50.5t84 -98t29 -152v-737zM645 283v149q-52 4 -91.5 2t-67.5 -2.5t-48 -8t-32 -15t-18.5 -23t-8.5 -32t-2 -42.5q0 -102 82 -102q87 0 186 74z" />
    <glyph glyph-name="atilde" unicode="&#xe3;" horiz-adv-x="1071" 
d="M889 1501l-12 -244q-64 -40 -201 -40q-53 0 -130 28.5t-138 28.5q-103 0 -203 -62v234q37 20 97.5 35.5t105.5 15.5q64 0 116 -14.5t91.5 -28.5t74.5 -14q54 0 108.5 15.5t90.5 45.5zM973 0h-293l-29 90q-165 -110 -321 -110q-119 0 -196 75t-77 219q0 74 10.5 126.5
t37 95t68.5 68.5t109 43t154.5 23.5t208.5 4.5v29q0 27 -1 42.5t-9 38.5t-22.5 35t-43 21.5t-69.5 9.5q-91 0 -188 -20t-162 -46v252q183 56 430 56q89 0 157 -15.5t123 -50.5t84 -98t29 -152v-737zM645 283v149q-52 4 -91.5 2t-67.5 -2.5t-48 -8t-32 -15t-18.5 -23
t-8.5 -32t-2 -42.5q0 -102 82 -102q87 0 186 74z" />
    <glyph glyph-name="adieresis" unicode="&#xe4;" horiz-adv-x="1071" 
d="M891 1362q0 -79 -34.5 -115.5t-113.5 -36.5q-78 0 -112.5 36.5t-34.5 115.5t34 114t113 35t113.5 -35t34.5 -114zM438 1362q0 -79 -34.5 -115.5t-112.5 -36.5q-79 0 -113.5 36.5t-34.5 115.5t34.5 114t113.5 35t113 -35t34 -114zM973 0h-293l-29 90q-165 -110 -321 -110
q-119 0 -196 75t-77 219q0 74 10.5 126.5t37 95t68.5 68.5t109 43t154.5 23.5t208.5 4.5v29q0 27 -1 42.5t-9 38.5t-22.5 35t-43 21.5t-69.5 9.5q-91 0 -188 -20t-162 -46v252q183 56 430 56q89 0 157 -15.5t123 -50.5t84 -98t29 -152v-737zM645 283v149q-52 4 -91.5 2
t-67.5 -2.5t-48 -8t-32 -15t-18.5 -23t-8.5 -32t-2 -42.5q0 -102 82 -102q87 0 186 74z" />
    <glyph glyph-name="aring" unicode="&#xe5;" horiz-adv-x="1071" 
d="M737 1350q0 -96 -60.5 -150.5t-154.5 -54.5t-154.5 54.5t-60.5 150.5q0 95 60.5 149.5t154.5 54.5t154.5 -54.5t60.5 -149.5zM973 0h-293l-29 90q-165 -110 -321 -110q-119 0 -196 75t-77 219q0 74 10.5 126.5t37 95t68.5 68.5t109 43t154.5 23.5t208.5 4.5v29
q0 27 -1 42.5t-9 38.5t-22.5 35t-43 21.5t-69.5 9.5q-91 0 -188 -20t-162 -46v252q183 56 430 56q89 0 157 -15.5t123 -50.5t84 -98t29 -152v-737zM590 1350q0 35 -15.5 50t-52.5 15t-52 -15t-15 -50q0 -36 15.5 -51t51.5 -15q37 0 52.5 15.5t15.5 50.5zM645 283v149
q-52 4 -91.5 2t-67.5 -2.5t-48 -8t-32 -15t-18.5 -23t-8.5 -32t-2 -42.5q0 -102 82 -102q87 0 186 74z" />
    <glyph glyph-name="ae" unicode="&#xe6;" horiz-adv-x="1644" 
d="M1552 414h-579q9 -115 49 -155t131 -40q68 0 140 10t115.5 20.5t133.5 33.5v-258q-242 -50 -448 -50q-234 0 -346 138q-120 -85 -197 -111.5t-209 -26.5q-121 0 -203 76t-82 219q0 74 10.5 126.5t37 95t68.5 68.5t109 43t154.5 23.5t208.5 4.5v33q0 27 -1 42.5t-9 38.5
t-22.5 35t-43 21.5t-69.5 9.5q-91 0 -188 -20t-162 -46v252q183 56 430 56q172 0 270 -60q108 60 274 60q234 0 331 -127t97 -426v-86zM1239 590q0 115 -27 167t-102 52q-74 0 -103 -54.5t-34 -164.5h266zM672 270q-19 76 -25 158q-52 4 -92 2t-68.5 -2.5t-48.5 -8t-32 -15
t-18.5 -23t-8.5 -32t-2 -42.5q0 -102 90 -102q100 0 205 65z" />
    <glyph glyph-name="ccedilla" unicode="&#xe7;" horiz-adv-x="909" 
d="M872 8q-179 -33 -346 -33q-117 0 -204.5 38t-140.5 109t-79 165.5t-26 212.5q0 130 24.5 229t78.5 173t145.5 112.5t218.5 38.5q118 0 317 -23l-14 -262q-141 37 -268 37q-101 0 -135.5 -67t-34.5 -238q0 -114 21 -175t57.5 -80.5t101.5 -19.5q93 0 262 43zM715 -113
l-301 -450l-209 31l215 419h295z" />
    <glyph glyph-name="egrave" unicode="&#xe8;" horiz-adv-x="1075" 
d="M793 1358l-27 -213l-541 188v277zM983 414h-580q9 -115 49.5 -155t131.5 -40q68 0 140 10t115.5 20.5t133.5 33.5v-258q-242 -50 -449 -50q-224 0 -336 127t-112 398q0 103 13 183.5t46.5 151.5t87 118t137.5 73.5t195 26.5q234 0 331 -127t97 -426v-86zM670 590
q0 115 -27 167t-102 52q-74 0 -103.5 -54.5t-34.5 -164.5h267z" />
    <glyph glyph-name="eacute" unicode="&#xe9;" horiz-adv-x="1075" 
d="M895 1606l-43 -281l-524 -180v211zM983 414h-580q9 -115 49.5 -155t131.5 -40q68 0 140 10t115.5 20.5t133.5 33.5v-258q-242 -50 -449 -50q-224 0 -336 127t-112 398q0 103 13 183.5t46.5 151.5t87 118t137.5 73.5t195 26.5q234 0 331 -127t97 -426v-86zM670 590
q0 115 -27 167t-102 52q-74 0 -103.5 -54.5t-34.5 -164.5h267z" />
    <glyph glyph-name="ecircumflex" unicode="&#xea;" horiz-adv-x="1075" 
d="M891 1354l-27 -205l-334 170l-342 -174v213l342 209zM983 414h-580q9 -115 49.5 -155t131.5 -40q68 0 140 10t115.5 20.5t133.5 33.5v-258q-242 -50 -449 -50q-224 0 -336 127t-112 398q0 103 13 183.5t46.5 151.5t87 118t137.5 73.5t195 26.5q234 0 331 -127t97 -426
v-86zM670 590q0 115 -27 167t-102 52q-74 0 -103.5 -54.5t-34.5 -164.5h267z" />
    <glyph glyph-name="edieresis" unicode="&#xeb;" horiz-adv-x="1075" 
d="M911 1362q0 -79 -34.5 -115.5t-112.5 -36.5q-79 0 -113.5 36.5t-34.5 115.5t34.5 114t113.5 35t113 -35t34 -114zM459 1362q0 -79 -34.5 -115.5t-113.5 -36.5q-78 0 -112.5 36.5t-34.5 115.5t34 114t113 35t113.5 -35t34.5 -114zM983 414h-580q9 -115 49.5 -155
t131.5 -40q68 0 140 10t115.5 20.5t133.5 33.5v-258q-242 -50 -449 -50q-224 0 -336 127t-112 398q0 103 13 183.5t46.5 151.5t87 118t137.5 73.5t195 26.5q234 0 331 -127t97 -426v-86zM670 590q0 115 -27 167t-102 52q-74 0 -103.5 -54.5t-34.5 -164.5h267z" />
    <glyph glyph-name="igrave" unicode="&#xec;" horiz-adv-x="565" 
d="M522 1358l-26 -213l-541 188v277zM449 0h-332v1036h332v-1036z" />
    <glyph glyph-name="iacute" unicode="&#xed;" horiz-adv-x="565" 
d="M608 1606l-43 -281l-524 -180v211zM449 0h-332v1036h332v-1036z" />
    <glyph glyph-name="icircumflex" unicode="&#xee;" horiz-adv-x="565" 
d="M633 1354l-27 -205l-334 170l-342 -174v213l342 209zM449 0h-332v1036h332v-1036z" />
    <glyph glyph-name="idieresis" unicode="&#xef;" horiz-adv-x="565" 
d="M664 1362q0 -79 -34.5 -115.5t-113.5 -36.5q-78 0 -112.5 36.5t-34.5 115.5t34 114t113 35t113.5 -35t34.5 -114zM211 1362q0 -79 -34.5 -115.5t-113.5 -36.5q-78 0 -112.5 36.5t-34.5 115.5t34 114t113 35t113.5 -35t34.5 -114zM449 0h-332v1036h332v-1036z" />
    <glyph glyph-name="eth" unicode="&#xf0;" horiz-adv-x="1130" 
d="M1055 514q0 -273 -122 -406t-368 -133q-245 0 -367 133t-122 406t122 406t367 133q8 0 25.5 -1t25.5 -1q-34 64 -90 137l-153 -74l-58 119l127 59q-76 87 -178 170h387q31 -20 56 -43l114 58l58 -119l-78 -37q112 -138 183 -342t71 -463v-2zM723 514q0 55 -3.5 95.5
t-13.5 78t-27 60.5t-45.5 37t-68.5 14q-49 0 -81 -19.5t-48 -60.5t-22 -88t-6 -117t6 -117t22 -88t48 -60.5t81 -19.5q40 0 68.5 14t45.5 37t27 60.5t13.5 78t3.5 95.5z" />
    <glyph glyph-name="ntilde" unicode="&#xf1;" horiz-adv-x="1114" 
d="M897 1501l-12 -244q-64 -40 -201 -40q-53 0 -130 28.5t-138 28.5q-103 0 -203 -62v234q37 20 97.5 35.5t105.5 15.5q64 0 116 -14.5t91.5 -28.5t74.5 -14q54 0 108.5 15.5t90.5 45.5zM1016 0h-332v633q0 66 -20 92.5t-62 26.5q-62 0 -164 -64v-688h-332v1036h287l39 -110
q184 121 334 121q140 0 195 -72t55 -207v-768z" />
    <glyph glyph-name="ograve" unicode="&#xf2;" horiz-adv-x="1130" 
d="M809 1358l-27 -213l-540 188v277zM1055 514q0 -273 -122 -406t-368 -133q-245 0 -367 133t-122 406t122 406t367 133q246 0 368 -133t122 -406zM723 514q0 55 -3.5 95.5t-13.5 78t-27 60.5t-45.5 37t-68.5 14q-49 0 -81 -19.5t-48 -60.5t-22 -88t-6 -117t6 -117t22 -88
t48 -60.5t81 -19.5q40 0 68.5 14t45.5 37t27 60.5t13.5 78t3.5 95.5z" />
    <glyph glyph-name="oacute" unicode="&#xf3;" horiz-adv-x="1130" 
d="M899 1606l-43 -281l-524 -180v211zM1055 514q0 -273 -122 -406t-368 -133q-245 0 -367 133t-122 406t122 406t367 133q246 0 368 -133t122 -406zM723 514q0 55 -3.5 95.5t-13.5 78t-27 60.5t-45.5 37t-68.5 14q-49 0 -81 -19.5t-48 -60.5t-22 -88t-6 -117t6 -117t22 -88
t48 -60.5t81 -19.5q40 0 68.5 14t45.5 37t27 60.5t13.5 78t3.5 95.5z" />
    <glyph glyph-name="ocircumflex" unicode="&#xf4;" horiz-adv-x="1130" 
d="M911 1352l-26 -205l-334 170l-342 -174v213l342 209zM1055 514q0 -273 -122 -406t-368 -133q-245 0 -367 133t-122 406t122 406t367 133q246 0 368 -133t122 -406zM723 514q0 55 -3.5 95.5t-13.5 78t-27 60.5t-45.5 37t-68.5 14q-49 0 -81 -19.5t-48 -60.5t-22 -88
t-6 -117t6 -117t22 -88t48 -60.5t81 -19.5q40 0 68.5 14t45.5 37t27 60.5t13.5 78t3.5 95.5z" />
    <glyph glyph-name="otilde" unicode="&#xf5;" horiz-adv-x="1130" 
d="M903 1501l-12 -244q-64 -40 -201 -40q-53 0 -130 28.5t-138 28.5q-103 0 -203 -62v234q37 20 97.5 35.5t105.5 15.5q64 0 116 -14.5t92 -28.5t75 -14q126 0 198 61zM1055 514q0 -273 -122 -406t-368 -133q-245 0 -367 133t-122 406t122 406t367 133q246 0 368 -133
t122 -406zM723 514q0 55 -3.5 95.5t-13.5 78t-27 60.5t-45.5 37t-68.5 14q-49 0 -81 -19.5t-48 -60.5t-22 -88t-6 -117t6 -117t22 -88t48 -60.5t81 -19.5q40 0 68.5 14t45.5 37t27 60.5t13.5 78t3.5 95.5z" />
    <glyph glyph-name="odieresis" unicode="&#xf6;" horiz-adv-x="1130" 
d="M936 1362q0 -79 -34.5 -115.5t-113.5 -36.5q-78 0 -112.5 36.5t-34.5 115.5t34 114t113 35t113.5 -35t34.5 -114zM483 1362q0 -79 -34.5 -115.5t-112.5 -36.5q-79 0 -113.5 36.5t-34.5 115.5t34.5 114t113.5 35t113 -35t34 -114zM1055 514q0 -273 -122 -406t-368 -133
q-245 0 -367 133t-122 406t122 406t367 133q246 0 368 -133t122 -406zM723 514q0 55 -3.5 95.5t-13.5 78t-27 60.5t-45.5 37t-68.5 14q-49 0 -81 -19.5t-48 -60.5t-22 -88t-6 -117t6 -117t22 -88t48 -60.5t81 -19.5q40 0 68.5 14t45.5 37t27 60.5t13.5 78t3.5 95.5z" />
    <glyph glyph-name="divide" unicode="&#xf7;" 
d="M629 1001q0 -70 -30 -102.5t-99 -32.5t-99 32.5t-30 102.5t29.5 101t99.5 31t99.5 -31t29.5 -101zM889 545h-780v235h780v-235zM629 326q0 -70 -29.5 -101.5t-99.5 -31.5t-99.5 31.5t-29.5 101.5t29.5 101.5t99.5 31.5t99.5 -31.5t29.5 -101.5z" />
    <glyph glyph-name="oslash" unicode="&#xf8;" horiz-adv-x="1130" 
d="M1055 514q0 -273 -122 -406t-368 -133q-96 0 -172 21l-43 -88h-168l74 149q-180 125 -180 457q0 273 122 406t367 133q95 0 172 -21l43 88h172l-75 -151q178 -129 178 -455zM618 791q-28 8 -53 8q-49 0 -81 -19.5t-48 -60.5t-22 -88t-6 -117q0 -81 8 -133zM723 514
q0 80 -8 129l-201 -407q25 -7 51 -7q40 0 68.5 14t45.5 37t27 60.5t13.5 78t3.5 95.5z" />
    <glyph glyph-name="ugrave" unicode="&#xf9;" horiz-adv-x="1114" 
d="M752 1358l-27 -213l-541 188v277zM1008 0h-287l-33 94q-155 -114 -319 -114q-271 0 -271 278v778h332v-643q0 -66 20 -92.5t62 -26.5q67 0 164 62v700h332v-1036z" />
    <glyph glyph-name="uacute" unicode="&#xfa;" horiz-adv-x="1114" 
d="M915 1606l-43 -281l-524 -180v211zM1008 0h-287l-33 94q-155 -114 -319 -114q-271 0 -271 278v778h332v-643q0 -66 20 -92.5t62 -26.5q67 0 164 62v700h332v-1036z" />
    <glyph glyph-name="ucircumflex" unicode="&#xfb;" horiz-adv-x="1114" 
d="M901 1354l-27 -205l-333 170l-342 -174v213l342 209zM1008 0h-287l-33 94q-155 -114 -319 -114q-271 0 -271 278v778h332v-643q0 -66 20 -92.5t62 -26.5q67 0 164 62v700h332v-1036z" />
    <glyph glyph-name="udieresis" unicode="&#xfc;" horiz-adv-x="1114" 
d="M924 1362q0 -79 -34.5 -115.5t-113.5 -36.5q-78 0 -112.5 36.5t-34.5 115.5t34 114t113 35t113.5 -35t34.5 -114zM471 1362q0 -79 -34.5 -115.5t-112.5 -36.5q-79 0 -113.5 36.5t-34.5 115.5t34.5 114t113.5 35t113 -35t34 -114zM1008 0h-287l-33 94q-155 -114 -319 -114
q-271 0 -271 278v778h332v-643q0 -66 20 -92.5t62 -26.5q67 0 164 62v700h332v-1036z" />
    <glyph glyph-name="yacute" unicode="&#xfd;" horiz-adv-x="1103" 
d="M936 1606l-43 -281l-524 -180v211zM1114 1036l-571 -1446h-332l178 410h-2l-397 1036h348l211 -618l215 618h350z" />
    <glyph glyph-name="thorn" unicode="&#xfe;" horiz-adv-x="1140" 
d="M1065 516q0 -256 -115 -398.5t-334 -142.5q-97 0 -178 19v-404h-332v1848h332v-430q74 45 174 45q101 0 180.5 -28t142 -89t96.5 -167.5t34 -252.5zM733 518q0 92 -11.5 150.5t-36.5 87t-53.5 38t-72.5 9.5q-72 0 -121 -43v-518q71 -19 133 -19q92 0 127 64.5t35 230.5z
" />
    <glyph glyph-name="ydieresis" unicode="&#xff;" horiz-adv-x="1103" 
d="M922 1362q0 -79 -34.5 -115.5t-113.5 -36.5q-78 0 -112.5 36.5t-34.5 115.5t34 114t113 35t113.5 -35t34.5 -114zM469 1362q0 -79 -34.5 -115.5t-112.5 -36.5q-79 0 -113.5 36.5t-34.5 115.5t34.5 114t113.5 35t113 -35t34 -114zM1114 1036l-571 -1446h-332l178 410h-2
l-397 1036h348l211 -618l215 618h350z" />
    <glyph glyph-name="dotlessi" unicode="&#x131;" horiz-adv-x="565" 
d="M449 0h-332v1036h332v-1036z" />
    <glyph glyph-name="Lslash" unicode="&#x141;" horiz-adv-x="989" 
d="M950 0h-833v530l-117 -77v297l117 77v611h336v-385l256 170v-297l-256 -170v-471h497v-285z" />
    <glyph glyph-name="lslash" unicode="&#x142;" horiz-adv-x="544" 
d="M539 807l-101 -68v-739h-332v520l-100 -67v297l100 67v621h332v-402l101 68v-297z" />
    <glyph glyph-name="OE" unicode="&#x152;" horiz-adv-x="1931" 
d="M1851 0h-866q-143 -25 -297 -25q-112 0 -202 22.5t-151.5 59t-106.5 94t-70.5 117.5t-41 140.5t-20 150.5t-4.5 160t4.5 160t20 150.5t41 140t70.5 117t106.5 94.5t151.5 59t202 22q153 0 291 -24h872v-277h-579v-287h495v-276h-495v-322h579v-276zM936 279v884
q-125 25 -248 25q-45 0 -80 -6t-61 -21.5t-44.5 -33.5t-31.5 -51t-20 -64t-11 -82t-5 -96t-1 -115t1 -115t5 -96t11 -82t20 -64t31.5 -51t44.5 -33.5t61 -21.5t80 -6q110 0 248 29z" />
    <glyph glyph-name="oe" unicode="&#x153;" horiz-adv-x="1722" 
d="M1630 414h-579q9 -115 49 -155t131 -40q68 0 140 10t115.5 20.5t133.5 33.5v-258q-242 -50 -449 -50q-187 0 -297 107q-123 -107 -309 -107q-245 0 -367 133t-122 406t122 406t367 133q202 0 320 -103q118 103 317 103q234 0 331 -127t97 -426v-86zM1317 590
q0 115 -27 167t-102 52q-74 0 -103 -54.5t-34 -164.5h266zM723 514q0 55 -3.5 95.5t-13.5 78t-27 60.5t-45.5 37t-68.5 14q-49 0 -81 -19.5t-48 -60.5t-22 -88t-6 -117t6 -117t22 -88t48 -60.5t81 -19.5q40 0 68.5 14t45.5 37t27 60.5t13.5 78t3.5 95.5z" />
    <glyph glyph-name="Scaron" unicode="&#x160;" horiz-adv-x="1081" 
d="M866 1763l-342 -209l-360 213l26 205l334 -170l342 174v-213zM1049 436q0 -115 -29.5 -199t-78 -133.5t-124 -79t-153 -39.5t-179.5 -10q-194 0 -417 41l20 312q83 -31 193 -49.5t204 -18.5q71 0 115 10.5t64 33.5t26 47t6 63q0 43 -22.5 74.5t-60.5 51t-87.5 35.5
t-104 32t-108.5 35.5t-103.5 52t-87.5 76t-60.5 112.5t-22.5 157q0 201 131 311.5t391 110.5q192 0 420 -37l-20 -323q-91 34 -199.5 55t-200.5 21t-128 -28t-36 -85q0 -41 22.5 -71t60 -49t86.5 -34.5t103 -32t108 -36.5t103 -53.5t86.5 -78.5t60 -115t22.5 -159z" />
    <glyph glyph-name="scaron" unicode="&#x161;" horiz-adv-x="960" 
d="M819 1354l-342 -209l-360 213l26 205l334 -170l342 174v-213zM901 311q0 -71 -22 -129t-68.5 -106t-128.5 -74.5t-193 -26.5q-88 0 -218.5 13.5t-215.5 31.5l37 252q72 -17 181.5 -32t187.5 -15q80 0 109.5 16.5t29.5 49.5t-21.5 45t-121.5 37q-103 26 -170.5 51.5
t-112 53.5t-67 67t-31 81.5t-8.5 106.5q0 164 101.5 242t319.5 78q172 0 363 -35l-25 -238q-168 41 -290 41q-97 0 -131.5 -9.5t-34.5 -45.5q0 -27 22.5 -40.5t104.5 -33.5q70 -16 124 -32t95.5 -35t71 -36.5t50 -41.5t33 -46.5t19 -55t8.5 -62t2 -72.5z" />
    <glyph glyph-name="Ydieresis" unicode="&#x178;" horiz-adv-x="1183" 
d="M973 1772q0 -79 -34.5 -115.5t-113.5 -36.5q-78 0 -112.5 36.5t-34.5 115.5t34 114t113 35t113.5 -35t34.5 -114zM520 1772q0 -79 -34.5 -115.5t-112.5 -36.5q-79 0 -113.5 36.5t-34.5 115.5t34.5 114t113.5 35t113 -35t34 -114zM1206 1438l-446 -860v-578h-336v578
l-447 860h375l246 -500l258 500h350z" />
    <glyph glyph-name="Zcaron" unicode="&#x17d;" horiz-adv-x="1175" 
d="M928 1763l-342 -209l-361 213l27 205l334 -170l342 174v-213zM1098 1196l-615 -920h602v-276h-1013v248l600 913h-586v277h1012v-242z" />
    <glyph glyph-name="zcaron" unicode="&#x17e;" horiz-adv-x="940" 
d="M813 1354l-342 -209l-360 213l26 205l334 -170l342 174v-213zM891 0h-828v258l406 510h-393v268h794v-258l-415 -510h436v-268z" />
    <glyph glyph-name="florin" unicode="&#x192;" horiz-adv-x="833" 
d="M944 1458l-24 -307q-82 51 -160 51q-103 0 -148 -44t-53 -148l-10 -142q60 0 272 4l-30 -290q-83 3 -261 8l-36 -572q-14 -211 -152.5 -339t-378.5 -128q-58 0 -164 11l31 276q59 -6 107 -6q112 0 170 48t65 151l39 561h-223l24 276h217l9 131q5 72 20.5 134.5t54.5 128
t97 111t154.5 75t221.5 29.5q65 0 158 -19z" />
    <glyph glyph-name="circumflex" unicode="&#x2c6;" horiz-adv-x="702" 
d="M702 1354l-26 -205l-334 170l-342 -174v213l342 209z" />
    <glyph glyph-name="caron" unicode="&#x2c7;" horiz-adv-x="702" 
d="M702 1354l-342 -209l-360 213l27 205l333 -170l342 174v-213z" />
    <glyph glyph-name="uni02C9" unicode="&#x2c9;" horiz-adv-x="606" 
d="M606 1235h-606v188h606v-188z" />
    <glyph glyph-name="breve" unicode="&#x2d8;" horiz-adv-x="620" 
d="M621 1425q0 -128 -78 -193t-232 -65t-232.5 65t-78.5 193q0 34 10 76h207q-20 -44 -20 -78q0 -35 24.5 -52t89.5 -17t89 17t24 52q0 32 -21 78h207q11 -46 11 -76z" />
    <glyph glyph-name="dotaccent" unicode="&#x2d9;" horiz-adv-x="364" 
d="M365 1352q0 -98 -43 -142.5t-140 -44.5t-139.5 44.5t-42.5 142.5q0 97 42 140.5t140 43.5t140.5 -43.5t42.5 -140.5z" />
    <glyph glyph-name="ring" unicode="&#x2da;" horiz-adv-x="430" 
d="M430 1350q0 -96 -60 -150.5t-155 -54.5t-155 54.5t-60 150.5t60 150t155 54t155 -54t60 -150zM297 1350q0 41 -19.5 60.5t-62.5 19.5t-62.5 -19.5t-19.5 -60.5t19.5 -60.5t62.5 -19.5t62.5 19.5t19.5 60.5z" />
    <glyph glyph-name="ogonek" unicode="&#x2db;" horiz-adv-x="385" 
d="M385 -414q-70 -8 -119 -8q-266 0 -266 232q0 105 82 190h293q-50 -19 -86 -44.5t-54.5 -52t-27 -51t-8.5 -47.5q0 -34 24.5 -61t63.5 -27t98 9v-140z" />
    <glyph glyph-name="tilde" unicode="&#x2dc;" horiz-adv-x="684" 
d="M684 1501l-12 -244q-64 -40 -201 -40q-53 0 -130 28.5t-138 28.5q-103 0 -203 -62v234q37 20 97.5 35.5t105.5 15.5q64 0 116 -14.5t91.5 -28.5t74.5 -14q54 0 108.5 15.5t90.5 45.5z" />
    <glyph glyph-name="hungarumlaut" unicode="&#x2dd;" horiz-adv-x="899" 
d="M899 1534l-299 -389l-184 29l221 360h262zM483 1534l-299 -389l-184 29l221 360h262z" />
    <glyph glyph-name="uni03A9" unicode="&#x3a9;" horiz-adv-x="1587" 
d="M1479 0h-598v274q50 45 87 90.5t71.5 106t52.5 136.5t18 163q0 171 -84.5 280t-234.5 109q-147 0 -241.5 -109t-94.5 -292q0 -85 20 -161.5t56.5 -136.5t72 -102t80.5 -84v-274h-600v274h332q-332 209 -332 564q0 271 195.5 445.5t511.5 174.5q138 0 252.5 -32t195 -89
t136 -134.5t82 -168t26.5 -190.5q0 -363 -342 -570h338v-274z" />
    <glyph glyph-name="uni03BC" unicode="&#x3bc;" horiz-adv-x="1114" 
d="M1008 0h-287l-33 94q-126 -94 -258 -110v-394h-332v1446h332v-643q0 -66 20 -92.5t62 -26.5q67 0 164 62v700h332v-1036z" />
    <glyph glyph-name="pi" unicode="&#x3c0;" horiz-adv-x="1552" 
d="M1403 244l55 -213q-87 -54 -237 -54q-91 0 -157.5 28.5t-104 79.5t-55 112.5t-17.5 136.5v446h-195v-456q0 -209 -47 -324h-350q51 136 51 352v428q-44 0 -101 -15t-93 -36q-10 26 -45.5 106t-45.5 105q51 34 148.5 59t216.5 25h1014v-244h-209v-395q0 -79 21.5 -121.5
t74.5 -42.5q30 0 76 23z" />
    <glyph glyph-name="endash" unicode="&#x2013;" horiz-adv-x="1024" 
d="M1024 455h-1024v211h1024v-211z" />
    <glyph glyph-name="emdash" unicode="&#x2014;" horiz-adv-x="2048" 
d="M2048 455h-2048v211h2048v-211z" />
    <glyph glyph-name="quoteleft" unicode="&#x2018;" horiz-adv-x="583" 
d="M516 815l-231 -39l-271 662h314z" />
    <glyph glyph-name="quoteright" unicode="&#x2019;" horiz-adv-x="583" 
d="M569 1438l-270 -662l-231 39l188 623h313z" />
    <glyph glyph-name="quotesinglbase" unicode="&#x201a;" horiz-adv-x="583" 
d="M508 346l-270 -661l-232 39l189 622h313z" />
    <glyph glyph-name="quotedblleft" unicode="&#x201c;" horiz-adv-x="1030" 
d="M963 858l-232 -39l-254 619h314zM516 815l-231 -39l-271 662h314z" />
    <glyph glyph-name="quotedblright" unicode="&#x201d;" horiz-adv-x="1030" 
d="M1016 1438l-271 -662l-231 39l188 623h314zM553 1438l-254 -619l-231 39l172 580h313z" />
    <glyph glyph-name="quotedblbase" unicode="&#x201e;" horiz-adv-x="1030" 
d="M954 348l-270 -661l-231 39l188 622h313zM492 348l-254 -618l-232 39l172 579h314z" />
    <glyph glyph-name="dagger" unicode="&#x2020;" horiz-adv-x="1040" 
d="M977 1075l-21 -282q-56 2 -163 4t-115 2v-553q0 -32 -6 -443l-303 -63q-7 280 -7 467v592q-12 0 -126 -2t-173 -4l21 282q188 -4 278 -4q0 24 -6 336l328 57q-1 -45 -2.5 -127t-2.5 -147t-1 -119q99 0 299 4z" />
    <glyph glyph-name="daggerdbl" unicode="&#x2021;" horiz-adv-x="1040" 
d="M977 668l-21 -283q-56 2 -163 4t-115 2v-145q0 -32 -6 -443l-303 -63q-7 280 -7 467v184q-12 0 -126 -2t-173 -4l21 283q188 -4 278 -4v135q-12 0 -126 -2t-173 -4l21 282q188 -4 278 -4q0 24 -6 336l328 57q-1 -45 -2.5 -127t-2.5 -147t-1 -119q99 0 299 4l-21 -282
q-56 2 -163 4t-115 2v-135q99 0 299 4z" />
    <glyph glyph-name="bullet" unicode="&#x2022;" horiz-adv-x="1024" 
d="M879 621q0 -209 -87.5 -311.5t-279.5 -102.5q-193 0 -280 102t-87 312t86 312.5t279 102.5t281 -102.5t88 -312.5z" />
    <glyph glyph-name="ellipsis" unicode="&#x2026;" horiz-adv-x="2162" 
d="M1989 172q0 -104 -44 -150.5t-147 -46.5t-146.5 46.5t-43.5 150.5t43.5 149.5t146.5 45.5t147 -45.5t44 -149.5zM1272 172q0 -104 -44 -150.5t-147 -46.5t-146.5 46.5t-43.5 150.5t43.5 149.5t146.5 45.5t147 -45.5t44 -149.5zM555 172q0 -104 -43.5 -150.5t-146.5 -46.5
t-147 46.5t-44 150.5t44 149.5t147 45.5t146.5 -45.5t43.5 -149.5z" />
    <glyph glyph-name="perthousand" unicode="&#x2030;" horiz-adv-x="2947" 
d="M2896 414q0 -79 -9.5 -140.5t-35 -119.5t-68 -96t-112.5 -60.5t-164 -22.5t-163.5 22.5t-112 60.5t-68 96t-34.5 119.5t-9 140.5t9 140.5t34.5 119.5t68 95.5t112 60t163.5 22.5t164 -22.5t112.5 -60t68 -95.5t35 -119.5t9.5 -140.5zM2015 414q0 -79 -9.5 -140.5
t-35 -119.5t-68 -96t-112.5 -60.5t-164 -22.5t-163.5 22.5t-112 60.5t-68 96t-34.5 119.5t-9 140.5t9 140.5t34.5 119.5t68 95.5t112 60t163.5 22.5t164 -22.5t112.5 -60t68 -95.5t35 -119.5t9.5 -140.5zM1499 1462l-651 -1487h-279l648 1487h282zM827 1024
q0 -79 -9.5 -140.5t-35 -119.5t-68 -95.5t-112.5 -60t-164 -22.5t-163.5 22.5t-112 60t-68 95.5t-34.5 119.5t-9 140.5t9 140.5t34.5 119.5t68 95.5t112 60t163.5 22.5t164 -22.5t112.5 -60t68 -95.5t35 -119.5t9.5 -140.5zM2626 414q0 68 -4 111.5t-11.5 70.5t-23.5 39.5
t-32.5 16t-47.5 3.5q-30 0 -47 -3.5t-32.5 -16t-22.5 -39.5t-11 -70.5t-4 -111.5q0 -112 11.5 -163.5t33.5 -65t72 -13.5q38 0 57.5 6t35.5 30.5t21 72.5t5 133zM1745 414q0 68 -4 111.5t-11.5 70.5t-23.5 39.5t-32.5 16t-47.5 3.5q-30 0 -47 -3.5t-32.5 -16t-22.5 -39.5
t-11 -70.5t-4 -111.5q0 -112 11.5 -163.5t33.5 -65t72 -13.5q38 0 57.5 6t35.5 30.5t21 72.5t5 133zM557 1024q0 85 -5 133t-21 72.5t-35.5 30.5t-57.5 6q-30 0 -47 -4t-32.5 -16.5t-22 -39.5t-10.5 -70t-4 -112t4 -112t10.5 -70t22 -39.5t32.5 -16.5t47 -4q38 0 57.5 6
t35.5 30.5t21 72.5t5 133z" />
    <glyph glyph-name="guilsinglleft" unicode="&#x2039;" horiz-adv-x="671" 
d="M580 -35l-496 443v186l496 442v-334l-215 -200l215 -203v-334z" />
    <glyph glyph-name="guilsinglright" unicode="&#x203a;" horiz-adv-x="671" 
d="M588 408l-496 -443v334l215 203l-215 200v334l496 -442v-186z" />
    <glyph glyph-name="fraction" unicode="&#x2044;" horiz-adv-x="858" 
d="M864 1438l-653 -1438h-254l649 1438h258z" />
    <glyph glyph-name="Euro" unicode="&#x20ac;" horiz-adv-x="1173" 
d="M1169 41q-70 -27 -182 -46.5t-213 -19.5q-124 0 -219 22.5t-159 62t-107.5 100.5t-66 130t-34.5 159h-188l63 219h111v77h-174l63 220h125q15 120 50 208.5t97 155t159.5 100t230.5 33.5q197 0 405 -55l-22 -270q-217 67 -371 67q-110 0 -164 -49.5t-73 -189.5h559
l-64 -220h-508v-77h486l-64 -219h-407q20 -122 80 -169t192 -47q166 0 373 70z" />
    <glyph glyph-name="litre" unicode="&#x2113;" horiz-adv-x="1107" 
d="M952 94q-65 -53 -153.5 -91t-184.5 -38q-151 0 -239 88q-47 47 -70.5 128t-23.5 159v78q-18 -16 -54.5 -50.5t-54.5 -50.5q-44 77 -84 150q32 30 97 87.5t96 86.5v371q0 220 95 349.5t271 129.5q69 0 122.5 -23.5t84.5 -63.5t46 -87t15 -98q0 -142 -66.5 -265
t-193.5 -252l-69 -75v-232q0 -200 125 -200q75 0 153 73q15 -31 88 -174zM733 1176q0 38 -16 61t-47 23q-41 0 -62.5 -45.5t-21.5 -122.5v-234q1 2 13.5 16.5t18.5 22.5q54 63 84.5 139t30.5 140z" />
    <glyph glyph-name="trademark" unicode="&#x2122;" horiz-adv-x="1523" 
d="M1440 778h-217v215l-58 -114h-143l-57 114v-215h-217v660h213l133 -281l133 281h213v-660zM608 1272h-162v-496h-217v496h-161v166h540v-166z" />
    <glyph glyph-name="Omega" unicode="&#x2126;" horiz-adv-x="1587" 
d="M1479 0h-598v274q50 45 87 90.5t71.5 106t52.5 136.5t18 163q0 171 -84.5 280t-234.5 109q-147 0 -241.5 -109t-94.5 -292q0 -85 20 -161.5t56.5 -136.5t72 -102t80.5 -84v-274h-600v274h332q-332 209 -332 564q0 271 195.5 445.5t511.5 174.5q138 0 252.5 -32t195 -89
t136 -134.5t82 -168t26.5 -190.5q0 -363 -342 -570h338v-274z" />
    <glyph glyph-name="estimated" unicode="&#x212e;" horiz-adv-x="1431" 
d="M1313 629h-965v-434q143 -140 342 -140q160 0 270 73.5t195 211.5q35 -20 76 -47q-50 -75 -100.5 -129.5t-115.5 -99t-146 -67t-179 -22.5q-137 0 -252.5 52t-194 141t-122 208t-43.5 253q0 181 73 328.5t215 236t328 88.5q188 0 329.5 -89t214 -235.5t75.5 -328.5z
M1040 707v354q-69 66 -160 104.5t-188 38.5q-209 0 -344 -141v-356h692z" />
    <glyph glyph-name="partialdiff" unicode="&#x2202;" horiz-adv-x="1310" 
d="M1235 920q0 -192 -51 -379q-79 -265 -238.5 -415.5t-386.5 -150.5q-207 0 -337 123.5t-130 311.5q0 118 31.5 217.5t83.5 167.5t121 115t143 69t150 22q92 0 164.5 -33.5t107.5 -86.5h6q4 58 4 84q0 132 -66.5 210t-191.5 78q-118 0 -213 -61q-12 37 -32.5 109.5
t-32.5 109.5q55 40 147 66t195 26q253 0 389.5 -159.5t136.5 -423.5zM858 653q-20 57 -60.5 90t-99.5 33q-108 0 -186 -113.5t-78 -265.5q0 -77 37.5 -122.5t101.5 -45.5q72 0 133 63.5t97 156t55 204.5z" />
    <glyph glyph-name="Delta" unicode="&#x2206;" horiz-adv-x="1411" 
d="M1438 0h-1393v137q79 217 469 1297h465q271 -760 459 -1297v-137zM1030 276q-88 254 -260 762q-16 51 -33 138h-10q-14 -69 -33 -132q-86 -256 -262 -768h598z" />
    <glyph glyph-name="product" unicode="&#x220f;" horiz-adv-x="1642" 
d="M1493 -471h-350v1606h-643v-1606h-348v1905h1341v-1905z" />
    <glyph glyph-name="summation" unicode="&#x2211;" horiz-adv-x="1433" 
d="M1327 -471h-1286v188q102 129 305.5 387.5t306.5 387.5q-111 140 -313 398.5t-268 342.5v201h1216v-275h-766q263 -345 506 -659q-89 -116 -268 -349t-268 -348h835v-274z" />
    <glyph glyph-name="minus" unicode="&#x2212;" 
d="M889 545h-780v235h780v-235z" />
    <glyph glyph-name="uni2215" unicode="&#x2215;" horiz-adv-x="858" 
d="M864 1438l-653 -1438h-254l649 1438h258z" />
    <glyph glyph-name="uni2219" unicode="&#x2219;" horiz-adv-x="514" 
d="M446 705q0 -104 -43.5 -150.5t-146.5 -46.5t-146.5 46.5t-43.5 150.5t43.5 149t146.5 45t146.5 -45t43.5 -149z" />
    <glyph glyph-name="radical" unicode="&#x221a;" horiz-adv-x="1228" 
d="M1227 1493q-200 -675 -445 -1518h-239q-45 100 -134.5 300t-134.5 300q-64 -42 -124 -77q-15 27 -46 79t-47 78q191 119 353 224q42 -98 126 -292.5t126 -291.5q57 199 172.5 598.5t173.5 599.5h219z" />
    <glyph glyph-name="infinity" unicode="&#x221e;" horiz-adv-x="1804" 
d="M1696 602q0 -176 -114 -286.5t-288 -110.5q-117 0 -222 57t-175 160h-4q-70 -95 -174 -156t-225 -61q-174 0 -290 106t-116 285q0 120 56.5 210t146.5 134.5t198 44.5q123 0 226 -58t176 -159h4q62 89 164 153t231 64q179 0 292.5 -107t113.5 -276zM1446 598
q0 71 -46 118.5t-132 47.5q-137 0 -250 -168q109 -170 256 -170q81 0 126.5 50t45.5 122zM764 596q-113 168 -254 168q-76 0 -124 -47.5t-48 -120.5q0 -72 50 -121t128 -49q70 0 134.5 47t113.5 123z" />
    <glyph glyph-name="integral" unicode="&#x222b;" horiz-adv-x="1099" 
d="M932 1262q-45 20 -101 20q-61 0 -96 -40t-35 -120v-1157q0 -215 -106.5 -334.5t-314.5 -119.5q-58 0 -122.5 10t-97.5 26q34 138 64 238q48 -21 98 -21q62 0 97.5 42t35.5 120v1151q0 219 104.5 340t313.5 121q66 0 131 -12.5t96 -28.5q-8 -27 -31 -109t-36 -126z" />
    <glyph glyph-name="approxequal" unicode="&#x2248;" 
d="M973 866q-60 -98 -124.5 -145t-154.5 -47q-119 0 -207 63q-93 66 -168 66q-22 0 -42 -10.5t-32.5 -21.5t-28.5 -36t-20.5 -33t-17.5 -34l-151 178q60 93 122.5 142.5t155.5 49.5q107 0 205 -61q62 -40 97 -54t75 -14q11 0 21.5 2.5t18.5 5.5t17.5 10.5t15 12t14 16
t12.5 16t12 18.5t10.5 18t10.5 19t9 17zM973 379q-60 -99 -124.5 -146t-154.5 -47q-121 0 -207 64q-92 65 -168 65q-22 0 -42 -10.5t-32.5 -21.5t-28.5 -36t-20.5 -33t-17.5 -34l-151 178q60 94 122.5 143.5t155.5 49.5q105 0 205 -62q61 -39 96.5 -53t75.5 -14
q33 0 60.5 21t43 46t33.5 59q3 6 4 9z" />
    <glyph glyph-name="notequal" unicode="&#x2260;" 
d="M893 340h-373l-119 -285h-247l116 285h-166v235h269l33 103h-302v235h402l110 269h250l-112 -269h139v-235h-238l-34 -103h272v-235z" />
    <glyph glyph-name="lessequal" unicode="&#x2264;" 
d="M893 0h-789v236h789v-236zM893 256l-789 315v271l789 315v-254l-533 -194l533 -195v-258z" />
    <glyph glyph-name="greaterequal" unicode="&#x2265;" 
d="M893 0h-789v236h789v-236zM893 569l-789 -315v254l531 194l-531 195v258l789 -315v-271z" />
    <glyph glyph-name="lozenge" unicode="&#x25ca;" horiz-adv-x="1292" 
d="M1153 717q-77 -120 -229.5 -358.5t-229.5 -358.5h-153q-277 434 -459 715q280 436 459 719h153q77 -120 229.5 -358.5t229.5 -358.5zM909 717q-178 279 -291 461q-227 -356 -292 -461q54 -86 154.5 -245t137.5 -218q107 173 291 463z" />
    </font>
</defs>
</svg>
