<?xml version="1.0" encoding="utf-8"?>
<!-- Generator: Adobe Illustrator 25.0.1, SVG Export Plug-In . SVG Version: 6.00 Build 0)  -->
<svg width="135px" height="40px" version="1.1" id="Layer_1" xmlns="http://www.w3.org/2000/svg" xmlns:xlink="http://www.w3.org/1999/xlink" x="0px" y="0px"
	 viewBox="0 0 42.34 14.37" style="enable-background:new 0 0 42.34 14.37;" xml:space="preserve">
<style type="text/css">
	.st0{fill:#FFFFFF;}
	.st1{fill:#A6A6A6;}
	.st2{fill:url(#SVGID_1_);}
</style>
<g>
	<path class="st0" d="M40.91,11.71c0,0.63-0.51,1.14-1.14,1.14c0,0,0,0,0,0H2.57c-0.63,0-1.14-0.51-1.14-1.14V2.66
		c0-0.63,0.51-1.14,1.14-1.14h37.21c0.63,0,1.14,0.51,1.14,1.14c0,0,0,0,0,0C40.91,2.66,40.91,11.71,40.91,11.71z"/>
	<path class="st1" d="M39.77,13.11H2.57c-0.77,0-1.4-0.63-1.4-1.4V2.66c0-0.77,0.63-1.4,1.4-1.4h37.21c0.77,0,1.4,0.63,1.4,1.4v9.05
		C41.18,12.48,40.55,13.11,39.77,13.11z"/>
	<path d="M40.91,11.71c0,0.63-0.51,1.14-1.14,1.14c0,0,0,0,0,0H2.57c-0.63,0-1.14-0.51-1.14-1.14V2.66c0-0.63,0.51-1.14,1.14-1.14
		h37.21c0.63,0,1.14,0.51,1.14,1.14c0,0,0,0,0,0C40.91,2.66,40.91,11.71,40.91,11.71z"/>
	<path class="st0" d="M10.1,7.12c-0.01-0.96,0.78-1.42,0.82-1.44c-0.45-0.65-1.14-0.74-1.39-0.75C8.95,4.87,8.38,5.28,8.09,5.28
		c-0.3,0-0.76-0.34-1.25-0.33C6.2,4.96,5.6,5.32,5.28,5.89C4.61,7.06,5.11,8.77,5.75,9.71c0.32,0.46,0.7,0.97,1.19,0.96
		c0.48-0.02,0.66-0.31,1.24-0.31c0.58,0,0.75,0.31,1.25,0.3c0.52-0.01,0.84-0.46,1.15-0.93c0.37-0.53,0.52-1.05,0.53-1.07
		C11.1,8.65,10.11,8.27,10.1,7.12z M9.15,4.31C9.41,3.99,9.59,3.55,9.54,3.1C9.16,3.12,8.69,3.36,8.42,3.68
		c-0.24,0.28-0.45,0.74-0.4,1.17C8.45,4.88,8.88,4.63,9.15,4.31z"/>
	
		<linearGradient id="SVGID_1_" gradientUnits="userSpaceOnUse" x1="-209.973" y1="-147.2579" x2="-209.973" y2="-111.2129" gradientTransform="matrix(1.1868 0 0 -1.1862 279.7065 -161.5268)">
		<stop  offset="0" style="stop-color:#1A1A1A;stop-opacity:0.1"/>
		<stop  offset="0.123" style="stop-color:#212121;stop-opacity:0.151"/>
		<stop  offset="0.308" style="stop-color:#353535;stop-opacity:0.227"/>
		<stop  offset="0.532" style="stop-color:#575757;stop-opacity:0.318"/>
		<stop  offset="0.783" style="stop-color:#858585;stop-opacity:0.421"/>
		<stop  offset="1" style="stop-color:#B3B3B3;stop-opacity:0.51"/>
	</linearGradient>
	<path class="st2" d="M39.77,1.26H19.85l7.81,11.86h12.12c0.77,0,1.4-0.63,1.4-1.4V2.66C41.18,1.88,40.55,1.26,39.77,1.26z"/>
	<g>
		<path class="st0" d="M17.08,10.6h-0.67l-0.37-1.16h-1.28L14.4,10.6h-0.66l1.27-3.95h0.78C15.8,6.65,17.08,10.6,17.08,10.6z
			 M15.93,8.95l-0.33-1.03c-0.04-0.11-0.1-0.35-0.2-0.74h-0.01c-0.04,0.17-0.1,0.42-0.19,0.74l-0.33,1.03H15.93z M20.34,9.14
			c0,0.48-0.13,0.87-0.39,1.15c-0.24,0.25-0.53,0.37-0.88,0.37c-0.38,0-0.65-0.13-0.81-0.4v1.49h-0.63V8.69
			c0-0.3-0.01-0.62-0.02-0.94h0.56l0.04,0.45h0.01c0.21-0.34,0.53-0.51,0.96-0.51c0.34,0,0.62,0.13,0.84,0.4
			C20.23,8.36,20.34,8.71,20.34,9.14z M19.7,9.16c0-0.28-0.06-0.51-0.19-0.69c-0.14-0.19-0.32-0.28-0.55-0.28
			c-0.16,0-0.3,0.05-0.42,0.16c-0.13,0.1-0.21,0.24-0.25,0.41c-0.02,0.06-0.03,0.13-0.03,0.19v0.47c0,0.21,0.06,0.38,0.19,0.52
			c0.13,0.14,0.29,0.21,0.49,0.21c0.24,0,0.42-0.09,0.56-0.28C19.63,9.71,19.7,9.46,19.7,9.16z M23.61,9.14
			c0,0.48-0.13,0.87-0.39,1.15c-0.24,0.25-0.53,0.37-0.88,0.37c-0.38,0-0.65-0.13-0.81-0.4v1.49H20.9V8.69
			c0-0.3-0.01-0.62-0.02-0.94h0.56l0.04,0.45h0.01c0.21-0.34,0.53-0.51,0.96-0.51c0.34,0,0.62,0.13,0.84,0.4
			C23.5,8.36,23.61,8.71,23.61,9.14z M22.97,9.16c0-0.28-0.06-0.51-0.19-0.69c-0.14-0.19-0.32-0.28-0.55-0.28
			c-0.16,0-0.3,0.05-0.42,0.16c-0.13,0.1-0.21,0.24-0.25,0.41c-0.02,0.08-0.03,0.14-0.03,0.19v0.47c0,0.21,0.06,0.38,0.19,0.52
			c0.13,0.14,0.29,0.21,0.5,0.21c0.24,0,0.42-0.09,0.56-0.28C22.9,9.71,22.97,9.46,22.97,9.16z M27.27,9.49
			c0,0.34-0.12,0.61-0.35,0.82c-0.26,0.23-0.62,0.35-1.07,0.35c-0.42,0-0.77-0.08-1.02-0.25l0.15-0.53
			c0.28,0.16,0.58,0.25,0.91,0.25c0.24,0,0.42-0.05,0.56-0.16c0.13-0.11,0.2-0.25,0.2-0.43c0-0.16-0.06-0.29-0.16-0.4
			c-0.11-0.11-0.29-0.21-0.54-0.3C25.24,8.57,24.9,8.2,24.9,7.7c0-0.32,0.12-0.59,0.37-0.8c0.24-0.21,0.57-0.31,0.97-0.31
			c0.36,0,0.66,0.06,0.9,0.19L26.97,7.3c-0.22-0.12-0.48-0.18-0.76-0.18c-0.22,0-0.4,0.05-0.52,0.16c-0.11,0.1-0.16,0.22-0.16,0.36
			c0,0.16,0.06,0.28,0.18,0.39c0.1,0.09,0.3,0.2,0.57,0.3c0.34,0.14,0.59,0.3,0.75,0.48C27.19,8.99,27.27,9.22,27.27,9.49z
			 M29.37,8.23h-0.7v1.38c0,0.35,0.12,0.53,0.37,0.53c0.11,0,0.21-0.01,0.28-0.03l0.02,0.48c-0.12,0.05-0.29,0.07-0.49,0.07
			c-0.25,0-0.44-0.08-0.59-0.23c-0.14-0.15-0.21-0.41-0.21-0.77V8.23h-0.42V7.75h0.42V7.23l0.62-0.19v0.71h0.7
			C29.37,7.75,29.37,8.23,29.37,8.23z M32.51,9.15c0,0.44-0.13,0.8-0.37,1.08c-0.26,0.29-0.61,0.43-1.04,0.43
			c-0.42,0-0.75-0.14-1-0.42c-0.25-0.28-0.37-0.63-0.37-1.05c0-0.44,0.13-0.8,0.38-1.08c0.26-0.28,0.6-0.42,1.03-0.42
			c0.42,0,0.75,0.14,1.01,0.42C32.39,8.38,32.51,8.73,32.51,9.15z M31.85,9.17c0-0.26-0.06-0.48-0.17-0.67
			c-0.13-0.23-0.32-0.34-0.57-0.34c-0.25,0-0.45,0.11-0.58,0.34c-0.11,0.19-0.17,0.41-0.17,0.68c0,0.26,0.06,0.49,0.17,0.67
			c0.14,0.23,0.33,0.34,0.57,0.34c0.24,0,0.43-0.12,0.57-0.34C31.79,9.65,31.85,9.43,31.85,9.17z M34.56,8.31
			c-0.07-0.01-0.13-0.02-0.2-0.02c-0.22,0-0.39,0.08-0.52,0.25c-0.1,0.15-0.16,0.34-0.16,0.56v1.49h-0.63V8.65
			c0-0.3-0.01-0.6-0.02-0.9h0.55l0.02,0.54h0.02c0.07-0.19,0.17-0.34,0.32-0.45c0.13-0.1,0.29-0.15,0.46-0.15
			c0.06,0,0.11,0,0.16,0.01C34.56,7.7,34.56,8.31,34.56,8.31z M37.39,9.04c0,0.1-0.01,0.19-0.02,0.29h-1.9
			c0.01,0.28,0.1,0.5,0.28,0.64c0.16,0.13,0.37,0.2,0.62,0.2c0.28,0,0.54-0.04,0.77-0.13l0.1,0.44c-0.27,0.12-0.59,0.18-0.95,0.18
			c-0.44,0-0.79-0.13-1.04-0.39c-0.25-0.26-0.38-0.61-0.38-1.04c0-0.43,0.12-0.79,0.35-1.07c0.25-0.3,0.58-0.46,0.99-0.46
			c0.41,0,0.72,0.15,0.93,0.46C37.31,8.39,37.39,8.68,37.39,9.04z M36.79,8.88c0-0.19-0.04-0.35-0.12-0.49
			c-0.11-0.18-0.28-0.26-0.5-0.26c-0.21,0-0.38,0.09-0.5,0.26c-0.11,0.14-0.17,0.3-0.19,0.49C35.47,8.88,36.79,8.88,36.79,8.88z"/>
	</g>
	<g>
		<path class="st0" d="M14.57,5.26c-0.18,0-0.33-0.01-0.45-0.02V3.33c0.18-0.03,0.36-0.04,0.54-0.04c0.73,0,1.06,0.36,1.06,0.94
			C15.71,4.89,15.32,5.26,14.57,5.26z M14.68,3.53c-0.1,0-0.18,0.01-0.25,0.02V5c0.04,0.01,0.11,0.01,0.21,0.01
			c0.48,0,0.75-0.27,0.75-0.78C15.38,3.78,15.14,3.53,14.68,3.53z M16.75,5.27c-0.41,0-0.67-0.31-0.67-0.72
			c0-0.43,0.27-0.74,0.7-0.74c0.4,0,0.67,0.29,0.67,0.72C17.45,4.97,17.17,5.27,16.75,5.27z M16.77,4.04c-0.22,0-0.37,0.21-0.37,0.5
			c0,0.29,0.15,0.5,0.37,0.5s0.37-0.22,0.37-0.5C17.13,4.25,16.98,4.04,16.77,4.04z M19.78,3.84l-0.44,1.4h-0.28l-0.18-0.61
			c-0.05-0.15-0.08-0.3-0.11-0.45h-0.01c-0.02,0.15-0.07,0.31-0.11,0.45l-0.19,0.61h-0.29l-0.41-1.4h0.32l0.16,0.66
			c0.04,0.16,0.07,0.31,0.09,0.45h0.01c0.02-0.12,0.06-0.26,0.12-0.45l0.2-0.67h0.25l0.19,0.65c0.05,0.16,0.08,0.31,0.11,0.46h0.01
			c0.02-0.14,0.05-0.3,0.09-0.46l0.17-0.65C19.48,3.84,19.78,3.84,19.78,3.84z M21.39,5.24h-0.31v-0.8c0-0.25-0.09-0.37-0.28-0.37
			c-0.18,0-0.31,0.16-0.31,0.34v0.83h-0.31v-1c0-0.12,0-0.26-0.01-0.4h0.27l0.01,0.22h0.01c0.08-0.15,0.25-0.24,0.44-0.24
			c0.29,0,0.49,0.22,0.49,0.59C21.39,4.4,21.39,5.24,21.39,5.24z M22.25,5.24h-0.31V3.2h0.31V5.24z M23.38,5.27
			c-0.41,0-0.67-0.31-0.67-0.72c0-0.43,0.27-0.74,0.7-0.74c0.4,0,0.67,0.29,0.67,0.72C24.08,4.97,23.8,5.27,23.38,5.27z M23.39,4.04
			c-0.22,0-0.37,0.21-0.37,0.5c0,0.29,0.15,0.5,0.37,0.5c0.22,0,0.37-0.22,0.37-0.5C23.75,4.25,23.61,4.04,23.39,4.04z M25.3,5.24
			l-0.02-0.16h-0.01c-0.09,0.13-0.23,0.19-0.41,0.19c-0.25,0-0.43-0.18-0.43-0.41c0-0.35,0.3-0.52,0.82-0.52V4.31
			c0-0.18-0.1-0.28-0.29-0.28c-0.14,0-0.26,0.03-0.37,0.1l-0.06-0.2c0.13-0.08,0.29-0.12,0.48-0.12c0.37,0,0.55,0.19,0.55,0.58v0.51
			c0,0.14,0.01,0.25,0.02,0.33C25.58,5.24,25.3,5.24,25.3,5.24z M25.26,4.54c-0.35,0-0.52,0.08-0.52,0.28
			c0,0.15,0.09,0.22,0.21,0.22c0.16,0,0.31-0.12,0.31-0.28V4.54z M27.07,5.24l-0.01-0.22h-0.01c-0.09,0.17-0.24,0.26-0.45,0.26
			c-0.34,0-0.59-0.3-0.59-0.71c0-0.44,0.26-0.75,0.61-0.75c0.19,0,0.32,0.06,0.39,0.19h0.01V3.2h0.31v1.66c0,0.14,0,0.26,0.01,0.38
			C27.35,5.24,27.07,5.24,27.07,5.24z M27.03,4.42c0-0.2-0.13-0.36-0.33-0.36c-0.23,0-0.37,0.2-0.37,0.49
			c0,0.28,0.15,0.47,0.37,0.47c0.2,0,0.33-0.17,0.33-0.37C27.03,4.65,27.03,4.42,27.03,4.42z M29.31,5.27
			c-0.41,0-0.67-0.31-0.67-0.72c0-0.43,0.27-0.74,0.7-0.74c0.4,0,0.67,0.29,0.67,0.72C30.01,4.97,29.73,5.27,29.31,5.27z
			 M29.32,4.04c-0.22,0-0.37,0.21-0.37,0.5c0,0.29,0.15,0.5,0.37,0.5c0.22,0,0.37-0.22,0.37-0.5C29.68,4.25,29.54,4.04,29.32,4.04z
			 M31.68,5.24h-0.31v-0.8c0-0.25-0.09-0.37-0.28-0.37c-0.18,0-0.31,0.16-0.31,0.34v0.83h-0.31v-1c0-0.12,0-0.26-0.01-0.4h0.27
			l0.01,0.22h0.01c0.08-0.15,0.25-0.24,0.44-0.24c0.29,0,0.49,0.22,0.49,0.59V5.24z M33.77,4.07h-0.34v0.68
			c0,0.17,0.06,0.26,0.18,0.26c0.05,0,0.1-0.01,0.14-0.01l0.01,0.24c-0.06,0.02-0.14,0.03-0.24,0.03c-0.24,0-0.39-0.14-0.39-0.49
			v-0.7h-0.2V3.84h0.2V3.59l0.31-0.09v0.35h0.34C33.77,3.84,33.77,4.07,33.77,4.07z M35.41,5.24H35.1v-0.8
			c0-0.25-0.09-0.38-0.28-0.38c-0.16,0-0.31,0.11-0.31,0.33v0.84H34.2V3.2h0.31v0.84h0.01c0.1-0.15,0.24-0.23,0.42-0.23
			c0.3,0,0.48,0.23,0.48,0.6C35.41,4.41,35.41,5.24,35.41,5.24z M37.1,4.62h-0.93c0.01,0.26,0.18,0.41,0.44,0.41
			c0.14,0,0.26-0.02,0.38-0.07l0.05,0.22c-0.13,0.06-0.29,0.09-0.47,0.09c-0.44,0-0.7-0.28-0.7-0.7c0-0.43,0.27-0.75,0.66-0.75
			c0.36,0,0.58,0.26,0.58,0.66C37.11,4.52,37.11,4.57,37.1,4.62z M36.81,4.39c0-0.22-0.11-0.37-0.31-0.37
			c-0.18,0-0.32,0.16-0.34,0.37C36.17,4.39,36.81,4.39,36.81,4.39z"/>
	</g>
</g>
</svg>
