<svg xmlns="http://www.w3.org/2000/svg" width="40" height="40" viewBox="0 0 40 40">
  <g id="Group_300530" data-name="Group 300530" transform="translate(-705 -4914)">
    <g id="Link" transform="translate(705 4913.927)">
      <g id="Link_Frame_Border_" data-name="Link [Frame Border]" transform="translate(0 0.073)" fill="none" stroke="rgba(20,23,49,0.15)" stroke-width="1">
        <rect width="40" height="40" rx="6" stroke="none"/>
        <rect x="0.5" y="0.5" width="39" height="39" rx="5.5" fill="none"/>
      </g>
      <g id="Img" transform="translate(9.167 9.239)">
        <path id="Vector" d="M9.167,6.417a2.75,2.75,0,1,0,1.945.805A2.75,2.75,0,0,0,9.167,6.417Zm0-1.833A4.583,4.583,0,1,1,5.926,5.926,4.583,4.583,0,0,1,9.167,4.583Zm5.958-.229a1.146,1.146,0,1,1-.336-.81A1.146,1.146,0,0,1,15.125,4.354ZM9.167,1.833c-2.268,0-2.638.006-3.693.053a4.98,4.98,0,0,0-1.648.3,2.646,2.646,0,0,0-.99.644,2.649,2.649,0,0,0-.645.99,4.973,4.973,0,0,0-.3,1.648c-.048,1.012-.053,1.366-.053,3.693,0,2.268.006,2.638.053,3.693a5,5,0,0,0,.3,1.647,2.85,2.85,0,0,0,1.634,1.634,4.99,4.99,0,0,0,1.65.305c1.012.048,1.366.053,3.693.053,2.268,0,2.638-.006,3.693-.053a5.01,5.01,0,0,0,1.647-.3,2.677,2.677,0,0,0,.99-.644,2.65,2.65,0,0,0,.645-.99,5.011,5.011,0,0,0,.3-1.65c.048-1.012.053-1.366.053-3.693,0-2.268-.006-2.638-.053-3.693a4.99,4.99,0,0,0-.3-1.648,2.668,2.668,0,0,0-.644-.99,2.644,2.644,0,0,0-.99-.645,4.978,4.978,0,0,0-1.648-.3c-1.012-.048-1.366-.053-3.693-.053ZM9.167,0c2.491,0,2.8.009,3.778.055a6.753,6.753,0,0,1,2.226.426A4.469,4.469,0,0,1,16.8,1.538a4.5,4.5,0,0,1,1.057,1.624,6.772,6.772,0,0,1,.426,2.226c.043.977.055,1.288.055,3.778s-.009,2.8-.055,3.778a6.777,6.777,0,0,1-.426,2.226,4.68,4.68,0,0,1-2.681,2.681,6.772,6.772,0,0,1-2.226.426c-.977.043-1.288.055-3.778.055s-2.8-.009-3.779-.055a6.777,6.777,0,0,1-2.226-.426A4.483,4.483,0,0,1,1.538,16.8,4.5,4.5,0,0,1,.481,15.171a6.748,6.748,0,0,1-.426-2.226C.012,11.968,0,11.657,0,9.167s.009-2.8.055-3.779A6.748,6.748,0,0,1,.481,3.162,4.473,4.473,0,0,1,1.538,1.538,4.489,4.489,0,0,1,3.162.481,6.748,6.748,0,0,1,5.388.055C6.365.012,6.676,0,9.167,0Z" transform="translate(1.833 1.833)" fill="#304761"/>
      </g>
    </g>
  </g>
</svg>
